<svg aria-hidden="true" fill="none" xmlns="http://www.w3.org/2000/svg" {% for name, value in attrs %}{{ name }}="{{ value }}" {% endfor %}viewBox="0 0 287 255"><path d="m73.4 252.7 211.9-131.4L73.5 2.5 177 120.9l.3.3-.3.4L73.4 252.7Z" fill="#144490" stroke="#F0EADD"/><path d="M270 57.1a1 1 0 0 0-1-1.5L11.2 47.7a1 1 0 0 0-1 1.4l26 68.3c.1.4.5.7 1 .6l200.4-6.8c.4 0 .7-.2.9-.5L269.9 57Z" fill="#F0EADD" stroke="#144490" stroke-width="2" stroke-linejoin="round"/><g filter="url(#a)" fill="#D92026"><path d="M76.6 103.6a13.3 13.3 0 0 1-9-3.4 13 13 0 0 1-2.7-3.8 13 13 0 0 1-1-5.1c0-3.5.5-7.3 1.4-11.4l-5.7-3-6.3-3.5-7 12.5a56 56 0 0 1-6.4 9.5 25.9 25.9 0 0 1-7.1 6 18.4 18.4 0 0 1-9.1 2.2 18 18 0 0 1-7.9-1.9A26.5 26.5 0 0 1 3.8 89a22 22 0 0 1-.3-17A19.6 19.6 0 0 1 15 61a25 25 0 0 1 9.2-1.7c4.1 0 8.2.6 12.2 1.7s7.9 2.5 11.7 4l7.6-11.8c2.3-3.3 4.6-6.1 6.7-8.3 2.2-2.3 4.4-4 6.4-5.1 2.2-1.2 4.4-1.7 6.7-1.7 1.9 0 3.5.3 4.8 1l2.4 1.6a15.6 15.6 0 0 1 7.2-2c1.8 0 2.7.4 2.7 1.3l-.5 1-1.7 1.9a33 33 0 0 0-2.5 4.3 129 129 0 0 0-7 17 175 175 0 0 0-3.3 10.4h1a6 6 0 0 0 2.4-.4 26.8 26.8 0 0 0 4.8-1.9c.2 0 .4.1.5.3.2.2.3.5.3.8 0 .4-.3 1-1 2a19 19 0 0 1-5.9 5.4 11 11 0 0 1-4 1.6l-1 5-.2 4.3c0 2.1.5 3.6 1.5 4.6 1 .9 2.2 1.3 3.6 1.3a6 6 0 0 0 3.4-1.2 19.8 19.8 0 0 0 6.5-7.1l.6-.4.8-.2c.5 0 .9.2 1.2.5.5.4.7.8.7 1.3 0 .2 0 .4-.2.7l-.3.6-.3.8c-1.3 2-2.8 4-4.4 5.5a22 22 0 0 1-5 3.8 11.4 11.4 0 0 1-6 1.7Zm-55-9c2.2 0 4.1-.5 6-1.5 1.7-1 3.5-2.6 5.3-4.6 1.8-2 3.7-4.7 5.7-7.8l6.8-11a46 46 0 0 0-14.5-3c-6.4 0-11.4 1.6-15 4.7A15.1 15.1 0 0 0 11.2 88a10.4 10.4 0 0 0 6 5.7c1.3.5 2.8.8 4.3.8Zm34.6-26.2 5.5 2.3a74 74 0 0 0 5.5 1.8 125.7 125.7 0 0 1 12.3-29 5 5 0 0 0-2-.3 8 8 0 0 0-4.6 1.4c-1.5 1-3 2.4-4.7 4.5a264 264 0 0 0-12 19.3Z"/><path d="M117.7 47.8c0-.8-.3-1.2-1-1.2-.9 0-2 .9-3.4 2.7a55.9 55.9 0 0 0-4.1 7.3 140 140 0 0 0-4.3 10 86.3 86.3 0 0 0-3.5 11.1 52.5 52.5 0 0 0 10.4-14.8 78.5 78.5 0 0 0 5.1-11.3c.6-1.7.8-2.9.8-3.8Zm-15.6 55.8c-1.8 0-3.5-.3-5.2-1-1.6-.5-3-1.4-4.3-2.5a14 14 0 0 1-3-4.3 14 14 0 0 1-1-5.6c0-3 .3-6.3 1-10a105.7 105.7 0 0 1 7.2-21.6A53.3 53.3 0 0 1 108.2 43a11 11 0 0 1 6.5-2.4c1 0 2 .2 2.8.7 1 .5 1.7 1 2.4 1.8.7.7 1.2 1.5 1.7 2.4.4.8.6 1.6.6 2.4 0 1.2-.4 2.9-1 4.8a52 52 0 0 1-6.8 13.1 109.9 109.9 0 0 1-9.6 13.2 44 44 0 0 1-4.8 4.8 187 187 0 0 0-.6 4.4v2.4a8 8 0 0 0 1.4 5c1 1.4 2.4 2 4.2 2a6 6 0 0 0 3.5-1.2 19.8 19.8 0 0 0 6.5-7.1l.6-.4.8-.2c.5 0 .9.2 1.2.5.4.4.7.8.7 1.3l-.2.7-.3.6-.3.8c-1.4 2-2.8 4-4.4 5.5a22 22 0 0 1-5 3.8 11.4 11.4 0 0 1-6 1.7Z"/><path d="M159 92.6c-1 1.5-2.3 2.8-3.9 3.8a20 20 0 0 1-4.9 2.7 18 18 0 0 1-6.8 1.2h-1.3l-1.4-.2a14.5 14.5 0 0 1-9.5 3.5 11.1 11.1 0 0 1-9-4.6 48.1 48.1 0 0 0-3.2 12.2 107 107 0 0 0-1.6 13.4c0 1.3-.6 2-1.7 2a11 11 0 0 1-2.7-.4c-1-.2-1.8-.5-2.6-1a5.5 5.5 0 0 1-2.9-5 236.5 236.5 0 0 1 4.6-22.5 1218.4 1218.4 0 0 1 5.5-19.7l2.5-7.6c.5-1.1 1.3-1.7 2.5-1.7a6 6 0 0 1 2.5.8c1.1.5 2.3 1.9 3.7 4a33.8 33.8 0 0 1 7.5-4.8c1.4-.6 2.7-.9 4.1-.9a10.1 10.1 0 0 1 7.7 3.7c1 1 1.7 2.2 2.2 3.5.5 1.3.8 2.6.8 4a30 30 0 0 1-6.3 17h.8c1.5 0 3-.3 4.2-.9a19.8 19.8 0 0 0 6.8-5.8l.5-.4.8-.2c.5 0 .9.2 1.2.5.5.4.7.8.7 1.3 0 .2 0 .4-.2.7l-.3.6-.3.8Zm-34.5-.8c0 1.7.5 3.3 1.4 4.7.8 1.5 2 2.2 3.5 2.2 1 0 2-.5 3-1.4a2 2 0 0 1-.5-1.2c0-.5.2-1 .5-1.4.3-.6.7-1 1.1-1.5l1.5-1a3 3 0 0 1 1.3-.5 40 40 0 0 0 3.8-13.5c0-1.6-.2-2.7-.8-3.4-.4-.6-1.2-1-2.2-1-1.2 0-2.5.7-4 2a31.8 31.8 0 0 0-7.4 10.5c-.8 2-1.2 3.9-1.2 5.5Z"/><path d="M179.1 51.3a10 10 0 0 1-.6 3.5 9.5 9.5 0 0 1-4 5 6 6 0 0 1-2.6.7 5 5 0 0 1-3.4-1.4c-1-.9-1.4-2.1-1.4-3.7a9 9 0 0 1 .6-3.3c.4-1 1-2 1.6-2.9.7-.9 1.5-1.5 2.4-2 .9-.6 1.9-.8 2.9-.8 1.3 0 2.3.4 3.2 1.3a5 5 0 0 1 1.3 3.6Zm-12.8 43c0 1 .2 1.8.7 2.4.5.6 1.2 1 2.1 1a6 6 0 0 0 3.5-1.3 19.8 19.8 0 0 0 6.5-7.1l.6-.4.8-.2c.4 0 .9.2 1.2.5.4.4.6.8.6 1.3l-.1.7-.3.6-.4.8a24.8 24.8 0 0 1-9.3 9.3 11.4 11.4 0 0 1-6 1.7c-3.4 0-6.1-1-8.2-2.7a9.1 9.1 0 0 1-3.2-7.1c0-1.6.3-3.6.8-5.8a108.4 108.4 0 0 1 6.2-18.5 3 3 0 0 1 1-1.2c.4-.3.9-.5 1.4-.5.7 0 1.4.2 2.2.6.9.4 1.7 1 2.4 1.5s1.3 1 1.8 1.6c.4.6.7 1 .7 1.4 0 1.4-.3 2.8-.8 4.4l-1.8 5c-.6 1.8-1.2 3.7-1.7 5.8-.5 2-.7 4-.7 6.1Z"/><path d="M209.9 94.2c0 1 .2 1.9.7 2.5a3 3 0 0 0 2.2 1 6 6 0 0 0 3.4-1.3 19.8 19.8 0 0 0 6.5-7.1l.6-.4.8-.2c.5 0 .9.2 1.2.5.5.4.7.8.7 1.3 0 .2 0 .4-.2.7l-.3.6-.3.8c-1.3 2-2.8 4-4.4 5.5a22 22 0 0 1-5 3.8 11.4 11.4 0 0 1-6 1.7c-3.4 0-6.1-.9-8.2-2.6-2-1.8-3.1-4-3.1-6.4 0-1.9.2-3.6.7-5.3a100 100 0 0 1 3.1-9.5c.5-1.5.7-3 .7-4.3 0-.4-.1-.8-.5-1-.4-.3-.8-.5-1.3-.5-1.3 0-2.8.7-4.4 2a20 20 0 0 0-4.5 5.5 37.7 37.7 0 0 0-4.8 20.3c0 .8-.2 1.3-.5 1.4-.3.3-.8.4-1.5.4-2.3 0-4.3-.5-6-1.4-1.5-.9-2.3-2-2.3-3.5 0-2.5.2-5.1.8-7.9a79.2 79.2 0 0 1 4.3-15.2l2-5.2c.6-1.1 1.4-1.7 2.5-1.7.6 0 1.5.3 2.6.8 1 .5 2.3 1.9 3.6 4a31.3 31.3 0 0 1 8.7-4.8c1.7-.6 3.4-.9 5.3-.9 1 0 2 .2 2.8.7 1 .5 1.8 1.1 2.5 1.9a8 8 0 0 1 1.7 2.4c.4.9.6 1.8.6 2.7 0 1.3-.2 2.8-.8 4.3-.4 1.5-1 3-1.6 4.7l-1.6 4.9a16 16 0 0 0-.7 4.8Z"/><path d="M233 86.2c1.6 0 3.2-.5 4.6-1.4a16 16 0 0 0 6.2-7.2 9 9 0 0 0 .8-3.5c0-1.2-.5-1.8-1.6-1.8-1.2 0-2.4.6-3.6 1.6-1.2 1-2.3 2.2-3.2 3.6a22 22 0 0 0-2.3 4.6c-.6 1.6-.9 3-.9 4Zm24 6.4c-1.3 2-2.9 4-4.9 5.5a28 28 0 0 1-6.2 3.8 20.7 20.7 0 0 1-8.8 1.7 18 18 0 0 1-6.2-1 13 13 0 0 1-8.1-6.9 12 12 0 0 1-1.2-5.2 24.5 24.5 0 0 1 12.8-21c2.2-1.2 4.4-1.7 6.3-1.7 1.4 0 2.7.3 3.9.8a10.4 10.4 0 0 1 5.1 5 8 8 0 0 1 .8 3.6 13.8 13.8 0 0 1-7.6 11.7 15.1 15.1 0 0 1-10.3 1 8 8 0 0 0 2.3 6.1 7.9 7.9 0 0 0 5.5 2.1c2.1 0 4-.4 5.8-1.2 1.7-.9 3.1-1.9 4.3-2.9a18.5 18.5 0 0 0 4.1-4.7l.6-.4.8-.2c.5 0 .9.2 1.2.5.4.4.7.8.7 1.3l-.2.7-.3.6-.3.8Z"/></g><g filter="url(#b)"><circle cx="27.8" cy="27.8" r="27.8" transform="matrix(-1 0 0 1 120.3 124)" fill="#D92026"/><path d="M98.5 162.5H87.2l-1.6 5.3h-10l12-32.1h10.8l12 32h-10.3l-1.6-5.2Zm-2-7L92.8 144l-3.6 11.5h7.1Z" fill="#F0EADD"/><circle cx="27.8" cy="27.8" r="27.8" transform="matrix(-1 0 0 1 230.4 124)" fill="#D92026"/><path d="M208.5 162.5h-11.3l-1.5 5.3h-10.2l12.1-32.1h10.8l12 32h-10.3l-1.6-5.2Zm-2-7-3.6-11.5-3.5 11.5h7Z" fill="#F0EADD"/><circle cx="27.8" cy="27.8" r="27.8" transform="matrix(-1 0 0 1 175.4 124)" fill="#D92026"/><path d="M148.2 135.7h10V153a29 29 0 0 1-1 8.4c-.7 1.9-2 3.5-4 4.8-2 1.4-4.4 2-7.5 2-3.2 0-5.8-.4-7.5-1.3a9.6 9.6 0 0 1-4.2-3.8c-1-1.7-1.5-3.8-1.7-6.3l9.5-1.3c0 1.4.1 2.5.4 3.2.2.7.6 1.2 1.2 1.6.3.3.9.5 1.6.5 1 0 1.9-.5 2.4-1.3s.8-2.2.8-4.1v-19.8Z" fill="#F0EADD"/><circle cx="27.8" cy="27.8" r="27.8" transform="matrix(-1 0 0 1 286 124)" fill="#D92026"/><path d="M242.1 135.7h11l5.6 9.8 5.5-9.8h10.9l-10 15.5 10.9 16.6h-11.1l-6.4-10.4-6.3 10.4h-11l11-16.8-10-15.3Z" fill="#F0EADD"/></g><defs><filter id="a" x="0" y="38.1" width="257.9" height="90.4" filterUnits="userSpaceOnUse" color-interpolation-filters="sRGB"><feFlood flood-opacity="0" result="BackgroundImageFix"/><feColorMatrix in="SourceAlpha" values="0 0 0 0 0 0 0 0 0 0 0 0 0 0 0 0 0 0 127 0" result="hardAlpha"/><feOffset dx="-2" dy="2"/><feComposite in2="hardAlpha" operator="out"/><feColorMatrix values="0 0 0 0 0.595833 0 0 0 0 0.089375 0 0 0 0 0.105801 0 0 0 1 0"/><feBlend in2="BackgroundImageFix" result="effect1_dropShadow_53_201"/><feBlend in="SourceGraphic" in2="effect1_dropShadow_53_201" result="shape"/></filter><filter id="b" x="62.8" y="124" width="223.2" height="57.6" filterUnits="userSpaceOnUse" color-interpolation-filters="sRGB"><feFlood flood-opacity="0" result="BackgroundImageFix"/><feColorMatrix in="SourceAlpha" values="0 0 0 0 0 0 0 0 0 0 0 0 0 0 0 0 0 0 127 0" result="hardAlpha"/><feOffset dx="-2" dy="2"/><feComposite in2="hardAlpha" operator="out"/><feColorMatrix values="0 0 0 0 0.595833 0 0 0 0 0.089375 0 0 0 0 0.105801 0 0 0 1 0"/><feBlend in2="BackgroundImageFix" result="effect1_dropShadow_53_201"/><feBlend in="SourceGraphic" in2="effect1_dropShadow_53_201" result="shape"/></filter></defs></svg>
