<svg role="img" width="277" height="257" aria-labelledby="phone_title" fill="none" xmlns="http://www.w3.org/2000/svg" viewBox="0 0 258 251"><title id="phone_title">Woman speaking into an old-fashioned telephone receiver</title><path fill-rule="evenodd" clip-rule="evenodd" d="M230.1 83.2c10.7 24.9 34.2 108.6 24.1 135.4-12.4 33.2-52.9-.2-85.4 14-36.5 12.2-77 5-98.8-28C39.1 184-8.8 172.5 1.7 136 12.4 99.3 73 109.8 106.5 87.3c26-17.4 14-85.7 44.7-86.7 32-1.1 67.3 55.5 79 82.6Z" fill="#C9DCDD"/><path d="m54.2 179 8.5-8h14l2 8 2 7 16 26.6 11 13 11.5-32.5 22.5 10.5-9 5.5 3 2.5 1 2.5-22.5 25.5-10-4.5-23.5-12.5-5.5-4.5 8-9-2.5-1-13.5-.5-5-13.5-5.5-7.5-2.5-7.5Z" fill="#F0EADD"/><path d="m117 236.5-12.5-1.5L78 221l-2.5-3.5L83 209l-16-1.5-3-9-3-6-6-8.5-.5-5 5-4.5-6-35.5L67 109l6-6 13-19.5 30-34 4-2 11.5 2L144 44l39.5 10L197 74.5l-7.5 8L189 94l-11.5 29 3 20.5 4 .5 2 .5 5.5 6.5.5 3.5 6 3 .5 2.5 3.5 1 1.5 3-.5 34 5.5 7 20 31.5-34-5-4.5-13.5-3-7.5-2-2.5-5.5-5-4-9.5-12.5 1-9-2-3-3.5-.5-3-6.5.5-3 17.5-9 5 3 2.5 1.5 2.5-20 22.5Z" fill="#F0EADD"/><path fill-rule="evenodd" clip-rule="evenodd" d="M140.6 42.8c-1.4.6-6.1 1.2-10.6 1.3-6.2.2-9 .8-11.5 2.4l-9.5 5.7c-3.4 2-7.9 5.5-10 7.9a40 40 0 0 0-5.6 9.1c-1 2.7-4 7.5-6.6 10.7a102 102 0 0 0-8 11.9 49.2 49.2 0 0 1-7.5 9.9 38.4 38.4 0 0 0-7 10.1 21 21 0 0 1-5.8 8.2 18 18 0 0 0-4.7 5c-1 1.7-2 5-2.2 7.5-.2 2.3.2 6 1 8 1.2 3.6 1.1 4.1-1.1 7.5-1.6 2.3-2.5 5-2.5 7.6 0 2.1.8 5.5 1.7 7.4.9 2 2.9 4.3 4.4 5.2 1.5.8 3 2.4 3.3 3.6.4 1.3-.2 2.5-2 3.8-2 1.4-2.2 2.3-1.7 5 .3 1.7 1 4 1.6 5.1.5 1.1 2.2 3.6 3.8 5.5 1.5 2 3 4.8 3.4 6.5.4 1.6 1 3.4 1.4 4 .4.5 1 2.2 1.4 3.6.4 1.8 1.6 3 3.7 3.7 1.7.6 5.1.8 7.7.5l4.7-.6-8 8.3 3.5 3a115.3 115.3 0 0 0 27.8 14.2c.4-.5 1.6-3 2.8-5.8l3.7-8.8c.9-2.1 1.2-3.6.7-3.3-.5.3-1.5 2-2.2 3.6-.6 1.6-1.6 3-2 3-.5 0-3.3-3.2-6.4-7-3-4-5.5-6.6-5.5-5.8 0 .7 2.5 4.4 5.6 8.2 4 5 5.4 7.4 5 9-.3 1.1-1.1 2.9-1.9 3.9-1.2 1.6-2.2 1.2-14.1-5.6-7.1-4-13.1-8-13.3-8.6-.3-.7 1.3-3 3.4-5.2 2.4-2.4 3.4-4.2 2.8-4.8-.5-.5-4.3-1-8.3-1.2l-7.4-.3-2.1-6.8c-1.2-3.7-3.4-8-4.8-9.5s-3-3.7-3.6-4.9c-.6-1.2-1.1-3-1.1-4s1.7-3.6 3.8-5.6c3.3-3.3 4.2-3.7 6-2.7a11.1 11.1 0 0 0 9.2 0c1.5-.8 1.9-.7 1.9.8 0 1 1 4.8 2.4 8.5a112.1 112.1 0 0 0 15.1 26.3c.3-.2-2.1-4.6-5.2-9.7-3.1-5.2-6.7-11.9-8-14.9-1.3-3-2.3-7-2.3-8.8 0-1.8.9-4.4 2-5.9 1-1.3 2-3.3 2-4.3a6 6 0 0 0-1.8-3.5 16.6 16.6 0 0 1-3.7-9.2c.2-.3 1.1.1 2 .8.8.7 1.5 1.9 1.5 2.7 0 .7 1.1 1.8 2.6 2.4 2 .7 3.2.6 4.8-.5 1.2-.8 2.8-2.8 3.5-4.5.7-1.8 1-4.1.5-5.8-.7-2.4-.8-2.5-1.4-.7-.4 1.4-1.4 2-3.6 1.9-1.8 0-3.6.7-4.5 1.8-1.4 1.8-1.6 1.8-3 .2-1.2-1.5-1.2-1.9.8-3.2 2-1.4 2-1.6.6-3.9-1.5-2.2-1.7-2.3-3.4-.8-1 1-2.6 1.4-3.5 1-1-.3-1.4-1.2-1-2 .3-1 0-1.5-.8-1.5S70.7 141 69 143c-2.5 3.1-3.2 3.5-4 2.2-.6-.8-1-2.4-1-3.5 0-1.2.7-2.8 1.7-3.7a12 12 0 0 1 4.3-2.2c2-.5 3.3 0 5.6 2 1.7 1.3 3.7 2.2 4.6 1.9a12 12 0 0 1 5.3.5c3.5.9 3.6.8 1.9-.5-1-.8-2.3-1.4-2.7-1.4-.5 0-.8-.5-.8-1 0-.6.7-1 1.6-1 .9 0 2.2.7 2.8 1.6.7 1 1.7 1.4 2.3 1 .6-.4 1.4-2.3 1.8-4.2.4-2 1.3-3.8 2-4.1 1.2-.4 1-.8-.7-1.7-1.3-.6-3.3-3.2-4.6-5.7a22.7 22.7 0 0 1-2.4-9.4 28 28 0 0 1 3.1-14.3c.7-1.2 1.8-.5 5.3 3.4l4.3 4.8 3.7-2.2c2-1.3 3.7-3 3.7-3.8 0-.8.5-2 1.3-2.8.7-.7 2.2-1.5 3.2-1.8 1.4-.3 1.1-.5-1-.6-1.5 0-4.3-.8-6.2-1.8a13.6 13.6 0 0 1-7.3-9.2c0-.9 1.5 0 3.8 2.2 2 2 4.3 3.7 5 3.7.7 0 3-.8 5-1.9 2-1 5.2-3.3 7-5 1.8-1.7 4-3 4.7-3 .8 0 1.4-.7 1.4-1.5 0-1-2-1.6-7-2.1a22 22 0 0 1-8.4-2c-.8-.8-1.6-1.4-1.9-1.4-.2 0-.3 1.7-.2 3.9.1 3-.2 4-1.6 4.4-1 .2-2.2 0-2.6-.7-.5-.6-1.2-2.3-1.5-3.6a18 18 0 0 1 .3-6.5c.5-2.6 2-5 4-6.7 1.8-1.5 3.5-2.5 3.9-2.3.3.2 1.3-.2 2.1-.8 1-.7 2-3 2.3-5 .5-2.3 2-5.2 3.6-6.8 2.8-2.8 2.9-2.8 6.6-1.2 2.2.8 4.4 2 5 2.5.9.7.8 1.7-.3 3.9-1 1.8-1.2 4-.8 5.9a8.7 8.7 0 0 0 2 4c.8.7 1.5 1 1.5.6s1-.1 2.2.5c2.2 1.2 2.2 1.2.3-1-1.3-1.4-2.1-1.8-2.6-1-.4.6-1.1-.2-1.8-2-.6-1.9-.7-4-.2-5.4.5-1.2 1.7-3 2.8-4 1.1-1 3.2-2 4.6-2.2a12 12 0 0 0 5.1-3c2-2 3.2-2.5 5.3-2l6.7 1.2c2.2.3 4.6.8 5.4 1.1l4.4 1c1.7.1 4.1 1 5.5 2a14 14 0 0 0 4 1.9c.8.1 3.3 1 5.4 2 3 1.3 4 1.5 4.4.6.2-.7.8-1.3 1.4-1.3.5 0 1.8 2 3 4.6 1 2.5 1.7 5.3 1.3 6.4-.3 1.1-1 2-1.5 2-.6 0-1-1-1-2 0-1.6-.5-2-2.4-1.6-1.4.3-3 .7-3.5 1-.6.4-1 .3-1-.2s-1-1.2-2-1.5c-1.1-.3-2-1.3-2-2.3 0-1.4-.3-1.5-.9-.6-.4.7-1.9 1.3-3.2 1.4a55 55 0 0 0-5.6.4l-3.2.5 4.3 4c2.4 2.1 5.1 3.9 6.1 3.9s1.5.3 1.2.6c-.4.4-3.3.1-6.5-.5a22 22 0 0 0-7.5-.5c-1 .3-1.7 1-1.7 1.5 0 .6.4.7 1 .4.4-.3 1.6-.2 2.5.1 1.4.5 1.4.8.4 1.5-1 .7-.8 1 .9 1.5 1.2.3 2 1 1.7 1.4-.3.5 1.5 1.1 4 1.5 2.6.4 7.2 1.5 10.3 2.6l5.6 1.8-4.5-.5c-2.9-.4-4-.2-3 .4 1 .8 1 1 0 1.4-.8.3-.3.6 1 .7 1.4 0 3.1.5 3.9 1 1 .6 1.2 3.5 1 12.4-.2 6.4-.6 12.1-1 12.7-.4.7-1.5.8-3 .3-1.3-.5-3-1-3.7-1-.8-.2-2.4.1-3.7.6-1.3.5-2.4 1.4-2.4 2 0 .8 1.4 1 4.4.5 3.3-.5 4.7-.3 6 1 .8.9 1.5 2 1.5 2.4 0 .4-1 2-2.1 3.5l-2.2 2.8-1.8-2.2c-1-1.3-1.8-1.9-1.8-1.4 0 .4-2.5.8-5.5.8s-5.5-.3-5.5-.7c0-.4.7-.8 1.5-.8s1.5-.7 1.5-1.6c0-1.5-.2-1.4-2.1.2-1.2 1-2.8 3.4-3.5 5.2-1.2 2.7-1.2 4.5-.3 9.4l1 6-3.2 3.4c-1.8 1.8-2.7 3.4-2 3.4.7 0 2.3-1.2 3.7-2.5 2.3-2.3 2.4-2.9 2-11.2-.4-4.8-.3-8.2 0-7.5.5 1 .9 1 1.8-.2.6-.8 2.2-1.5 3.6-1.6h3.6c.7 0 2 1.5 3.1 3.3 1.8 3 1.9 3.9.7 11.9-.7 4.7-2 9.8-2.7 11.4-.8 1.6-3.2 4.4-5.3 6.4a131 131 0 0 0-9.3 10.2 38 38 0 0 1-6.2 6.7c-.4 0-1.7 1.7-2.7 3.8-1.1 2.2-2.7 4.2-3.6 4.5-1 .4-3.5.6-5.8.6a27 27 0 0 1-10.3-2.9c-4.4-2-9-5.8-16.7-13.2-8.7-8.5-11-11.3-13-16.3-1.4-3.3-2.5-5-2.5-4 0 1.1 1.2 4.5 2.6 7.5 1.4 3 4.3 7.8 6.4 10.6 2.4 3.2 7 7.3 12.6 11l9.2 6.1c.3.2-.8 2.7-2.4 5.5a151 151 0 0 1-7.1 11.3 83.6 83.6 0 0 0-6.9 11.9 21.2 21.2 0 0 0-2.2 7.3c.2 1 1 .2 1.8-2.1.7-2 1.7-3.8 2-3.8.5 0 1 1 1.4 2 .4 1.1 1 2 1.6 2 .5 0 1.4-1.2 2-2.7a101 101 0 0 0 2.7-9.5c1-4.1 2.1-6.7 3-6.7.6 0 1.7 1 2.2 2.4.7 2 2 2.6 6.7 3.6l7.5 1.6c1 .3 1.7 1 1.7 1.4 0 .5-1.5 1.6-3.5 2.4-1.9.8-3.5 1.9-3.5 2.5 0 .5 1 1.5 2 2 1.1.6 2 1.6 2 2.2 0 .5-4.2 5.5-9.4 11a59.1 59.1 0 0 0-9.5 11.7c0 .9 2-.8 4.8-4 2.5-3 7.3-8.2 10.5-11.6 5.8-6.1 5.9-6.3 4.3-8.7-1.3-1.9-1.4-2.6-.4-3.2a43 43 0 0 1 11.2-.9c8.2 0 10.7-.4 14.1-2.2 2.3-1.3 4.7-3.2 5.3-4.3.7-1.2 1-2.2.8-2.3l-2.8-1.4c-2.3-1-2.2-1 2-1.2 2.5 0 5.4-.3 6.6-.6 1.7-.5 2.2 0 2.8 2 .3 1.4 1 2.6 1.7 2.6.6 0 .8-.7.5-1.6a40 40 0 0 1-1.2-3.8c-.4-1.6 0-2.5 1.9-3.5 1.3-.7 3-1 3.5-.7.7.4.5 2.1-.5 5-.8 2.5-3.3 6.5-5.5 9s-7.6 7-12.1 10.2c-4.5 3.1-10.2 7.4-12.8 9.5-2.5 2-5.5 5.8-6.7 8.3a22.2 22.2 0 0 0-2.1 7.2c0 1.8 1.2 4.2 3.4 6.5 1.8 2 4.2 3.8 5.2 3.8l4.3.4c1.4.2 4.8-.4 7.5-1.2a62.8 62.8 0 0 0 15.4-7l11.5-6a424 424 0 0 1 17.4-8.4 57 57 0 0 1 10-3.8c.8 0 2.7 2 4.2 4.5a16 16 0 0 0 4.3 5.1c.8.3 1.8.3 2.2 0 .4-.4 0-2-1-3.6-1.5-2.7-1.5-2.8.9-3.9a7.2 7.2 0 0 0 3-2.6c.3-.8 0-2.2-.7-3-.8-1-3-1.5-6-1.5-2.6 0-5 .4-5.3.9-.3.4-4 2-8.3 3.6-4.3 1.5-10.7 4.2-14.2 6a1595 1595 0 0 1-18 8.8 159 159 0 0 1-16.3 7c-2.7 1-6.1 1.6-7.6 1.6s-3.8-.9-5.2-2a10.6 10.6 0 0 1-3.2-4c-.3-1-.1-3.7.5-6 .7-2.4 2.6-5.5 5-7.8 2.2-2.1 7.2-6 11.1-8.7 4-2.7 9.5-7 12.3-9.6l5.2-4.7 3.9 4.2c2.8 3 4.6 6.4 6.2 11.7a49 49 0 0 0 3.2 8.4c.5.6.9.2.9-1 0-1-.5-3.4-1-5.3-.8-3-.6-3.8 1.6-6.5a22 22 0 0 1 5.2-4.5 33 33 0 0 1 5.8-2.1c3-.7 3.4-.5 6.5 4.6 1.8 3 3.8 5.4 4.5 5.4.7 0 1.3-.2 1.3-.4a113.3 113.3 0 0 0-11.6-18.4c-2-2-2.3-3.3-2.3-8 .1-3 .4-10.2.8-16 .4-7.1.3-11.2-.6-13.2-.6-1.5-1.6-2.8-2-2.8-.6 0-2.3-1.1-3.8-2.5l-3.7-3.3c-.4-.4-2.1-2.8-3.8-5.5a13 13 0 0 0-6-5.8 8.1 8.1 0 0 1-3.9-2.9c-.6-1.2-.6-2 0-2.4.6-.4 1-1.8 1-3.1 0-1.4-.6-3.5-1.4-4.7-.7-1.2-1.4-3.5-1.4-5.2 0-1.6.4-4.4 1-6.2.5-1.8 3-5 5.6-7.2l4.7-4-.6-19 3.6-1.4c2.4-1 4-2.6 5-5 .8-1.9 1.5-4.3 1.5-5.3s-1.6-4.9-3.4-8.6a52.1 52.1 0 0 0-5.7-9.2c-1.2-1.3-2.6-2.4-3-2.4-.5 0-2.8-2-5.1-4.4a19.2 19.2 0 0 0-6.7-4.9c-1.4-.2-5.7-1.2-9.5-2.1-3.8-1-11-1.9-16-2.1-5.2-.3-10 0-11.4.7Zm1 6.6c0 1.3.3 1.4 1.2.5.7-.7 1.6-1.2 2-1.2.4 0 .8.6.8 1.4 0 .8-.8 2-1.8 2.5-1.5.9-1.5 1 0 1 .9 0 2.2.3 3 .6.7.2 2.2-.2 3.3-1 1.9-1.3 2-1.4 0-3.5a7 7 0 0 0-5.2-2c-2.4 0-3.3.4-3.3 1.7ZM154 53c0 2.4.3 4.2.7 4 .4-.3 1.4.2 2.2 1 1.4 1.4 1.7 1.3 3-.7a8.7 8.7 0 0 0 1.6-3.2c0-.5-.6 0-1.5 1-.9 1.2-1.3 1.3-1 .4.4-.9-.6-2.7-2.2-4.2l-2.7-2.6V53Zm6.5-1.5c0 .8.3 1 .7.7.4-.4.4-1 0-1.3-.4-.4-.7 0-.7.6Zm11 3.5c0 .3.2.5.5.5a.5.5 0 0 0 0-1c-.3 0-.5.3-.5.5Zm1 2c0 .3.2.5.5.5a.5.5 0 0 0 0-1c-.3 0-.5.3-.5.5Zm-36.3 4.5c-.4 1-.4 2.9 0 4 .5 2 .6 2 2.6 0 1-1 1.8-2.6 1.6-3.6-.1-1-1-2-2-2.2-1-.2-1.9.6-2.2 1.8Zm-20.4-.2c0 .7-.5 1-1 .7-.6-.3-1-.2-1 .3s.8 1.7 2 2.7c1 1 2 1.6 2.3 1.4.2-.2-.3-1.7-1-3.4-.7-1.6-1.3-2.4-1.3-1.7Zm4.2 2.4c0 1 1 2.4 2 3 1 .5 2 .7 2.3.5.3-.3-.6-1.6-2-3-2.2-2.2-2.4-2.3-2.3-.5Zm63.4-1.7c0 .3.3.5.5.5a.5.5 0 0 0 0-1c-.2 0-.5.2-.5.5Zm-32.6 3c-1.2 1-2.2 2.3-2.2 3 0 .8.4 1.5 1 1.5.5 0 1-.5 1-1.2 0-.6.7-2 1.6-3 1-1 1.5-1.8 1.2-1.8-.2 0-1.4.7-2.6 1.6Zm-9.2.5c0 .7.3 1 .7.7.3-.4.3-1 0-1.4-.4-.3-.7 0-.7.7Zm3 1.8c0 .8-.5 1-1.2.6-1-.6-1-.4 0 .6.6.8 1.4 1 1.8.7.3-.3.4-1.2 0-1.9-.4-1-.5-1-.5 0Zm10.2-.1c-.7.2-1.2 1-1.2 1.5 0 .7.4.7 1.2 0 .7-.5 2.1-1.2 3.2-1.5l2-.5h-2c-1 0-2.5.2-3.2.5Zm-40.7 2c.4.7 2.6 1.4 4.9 1.7 2.3.3 5.8.2 7.7-.3 3-.8 2.8-1-3.2-1a40 40 0 0 1-8.4-.8c-1.1-.4-1.5-.3-1 .5Zm76.3 2.7c0 .3-.4.7-1 1-.5.4-1 .2-1-.4 0-.5.5-1 1-1 .6 0 1 .2 1 .4Zm-87 14.7c1.3 1.4 1.4 2 .4 1.7a9.6 9.6 0 0 1-3.3-3 18 18 0 0 1-2.3-7l-.5-4.3 1.9 5.2a29 29 0 0 0 3.8 7.4Zm90-9.7c0 .3-1.3 1.2-3 2-1.6.9-3.7 1.5-4.7 1.5s0-.9 2.2-2a34 34 0 0 1 4.7-1.9c.5 0 .8.2.8.4Zm-27.9 2c0 .3.2.6.5.6a.5.5 0 0 0 0-1c-.3 0-.5.2-.5.5ZM86.5 92a113 113 0 0 0-4.2 12.4l-1.5 6.4 2.6 3.8a19 19 0 0 1 3 7.5c.4 3.2 0 4-2.6 6.3-1.8 1.4-3.4 2.5-3.6 2.3-.2-.1-1.7.4-3.3 1.3-1.6.8-4 1.5-5.2 1.5-1.3 0-3.3.6-4.6 1.4-2.1 1.1-2.6 1-4.8-1.2-1.6-1.5-2.2-3-1.8-4.3.3-1 1.7-2.7 3.1-3.9 1.8-1.4 3.4-1.8 5.2-1.3a12 12 0 0 1 4.3 2c1 .8 2.1 1.2 2.7.8.6-.3 1-1.7 1-3 0-1.7-.7-2.9-2.4-3.7-1.4-.6-2.5-1.7-2.5-2.5 0-.7.7-1.6 1.5-1.9.8-.3 1.5-1.2 1.5-1.9s.4-1.4.8-1.6a28 28 0 0 0 3.1-7.3 150 150 0 0 1 5.9-14.4c2-4 3.7-6.8 4-6.1.2.7-.8 4-2.2 7.4Zm102.7-1.3c.4 2.4.3 2.4-1.2.4a8 8 0 0 1-1.5-2.8c0-.5.5-.6 1.2-.4.7.2 1.4 1.5 1.5 2.8ZM110.4 93c0 .3 4.5.5 4.8.5a.5.5 0 0 0 0-1c-.3 0-4.8.2-4.8.5Zm19.3 3.5c-1.1.7-.3 1 3 1 2.6 0 5.7.8 7.4 1.9 1.7 1 4.3 3 5.8 4.4 1.5 1.5 3.2 2.7 3.7 2.7s1-.7 1-1.5-1-2.4-2.3-3.6c-1.2-1.2-3.6-3-5.2-4a15.3 15.3 0 0 0-7.5-1.9c-2.4 0-5.1.5-6 1Zm-3.7 1.7c.4.3 1 .3 1.3 0 .4-.4.1-.7-.6-.7-.8 0-1 .3-.7.7Zm-36.2 7.5c-1 1.8-2 3.8-2 4.5 0 .7.4 1.3.8 1.2.4 0 1.7-1.7 2.9-4 1.2-2.1 1.7-4.2 1.2-4.5-.4-.3-1.8 1-2.9 2.8Zm-15.3 3.6c0 1.7-.1 3.1-.5 3.1a7 7 0 0 1-2.3-1.3c-1-.8-1.8-1.8-1.8-2.3 0-.5.6-1.5 1.2-2.1.7-.7 1.7-1.1 2.2-1 .6.3 1.1 1.8 1.2 3.6Zm18 1c-.8.9-1.6 2.3-1.7 3.1-.1.9-.2 2.1 0 2.8 0 .7.9 1.2 2 1.2 1 0 2 .7 2.4 1.5.3.9 1 1.5 1.6 1.5.5 0 1-1 1-2.2-.1-2-.2-2.1-.9-.3-.7 1.7-.8 1.7-1.4.2-.3-1-1.3-1.7-2.2-1.7-.8 0-1.5-.8-1.5-2 0-1.1 1.2-2.5 3-3.4 1.7-.9 3-1.8 3-2 0-.3-.8-.5-1.8-.5s-2.6.8-3.4 1.7Zm39.2 1.2c0 .5.4 1 1 1a1 1 0 0 0 0-2 1 1 0 0 0-1 1Zm16.8 2.9c1 1.9 1.7 3.8 1.5 4.2-.3.5 0 .8.5.8.6 0 1-.6 1-1.4 0-.8-1-2.7-2.5-4.2l-2.5-2.8 2 3.4Zm20.8 3.7c.7.3 1.6.3 2 0 .2-.4-.3-.6-1.4-.6-1.2 0-1.4.3-.6.6Zm-35.2 1.3c.4.6 1.6 1 2.8 1 2.1-.1 2.1-.1.2-1-1-.4-2.3-.9-2.8-.9-.4 0-.5.4-.2 1Zm-43.8 3c.9 1.7 1.8 3 2 3 .3 0-.1-1.3-1-3-.8-1.6-1.7-3-2-3-.3 0 .2 1.4 1 3Zm72.7 7c.4.5 1.4 1 2.3 1 1.5 0 1.5-.2.2-1-.8-.5-1.8-1-2.3-1-.4 0-.5.4-.2 1Zm-19.8 5.6c-.9.8-1.6 2-1.6 2.4 0 .5.5 1.1 1 1.5.5.3.7 0 .4-.9-.3-.8.4-2.1 1.8-3 1.2-.9 1.7-1.6 1-1.6-.5 0-1.8.7-2.6 1.6Zm-13.8 3.3c-2.6.8-4.7 1.9-4.7 2.3 0 .4.4.8.9.8s3-1 5.5-2 4.5-2.2 4.5-2.5c0-.3-.3-.5-.7-.4l-5.5 1.8Zm17 .7c.6.3 1.7.3 2.4 0 .7-.2.2-.5-1.2-.5s-2 .3-1.3.5ZM62 144.4c.5 1 .8 2 .6 2-.3 0-1.2-.8-2-1.6-1-.9-1.6-2-1.6-2.6 0-.5.4-.7 1-.3a8 8 0 0 1 2 2.5Zm124.6.2c.8.7 2.5 2.7 3.7 4.5 1.6 2.3 1.8 3.2.9 3.2-.7 0-2.2-.6-3.3-1.3-1-.8-3.2-1.7-4.7-2-2.4-.6-3.5 0-7.5 3.7-4 3.8-4.9 4.2-6 3-1.2-1.2-1-2 1.1-4.8 1.6-2 4.6-4 7.8-5.3l5.9-2.2a5 5 0 0 1 2 1.2Zm-61.2 1.4c-.4.3.5 2.9 2 5.7a33 33 0 0 0 4.6 7.4 21 21 0 0 0 4.8 3.8 15 15 0 0 0 6 1.4c2.3 0 4.2-.8 5.6-2.3 1.2-1.3 2.2-3 2.2-4 0-.9.9-2.1 2-2.7 1-.6 2-1.5 2-2 0-.6-1.3-1.5-2.8-2.1a41 41 0 0 0-15.4-4.8c-4-.6-8-1-8.8-1-.9 0-1.9.2-2.2.6Zm-60 2c.8.3 1.5 1.6 1.5 2.8 0 1.2 1 3.4 2 4.9 1.2 1.4 2.9 2.6 3.8 2.6 1.5 0 1.5.2 0 1.5-.8.9-2.2 1.3-3.1 1-1-.4-1.7-1.5-1.7-2.4 0-.9-1.1-3.5-2.5-6a41.2 41.2 0 0 1-2.5-4.7c0-.2.2-.4.5-.4l2 .6Zm72.4.5c3 .6 7 2 9.1 3 2 1 3.6 2.5 3.4 3.1-.2.7-1.4 1.4-2.6 1.5a36 36 0 0 1-10.4-2.8 54 54 0 0 1-9.6-4.6c-1.2-1.2-1-1.4 1.7-1.4 1.7 0 5.5.5 8.4 1.2Zm-63.5 4c.4-.7 1.1-1 1.6-.7.5.3.6 1.2.3 2-.3.9-1.6 1.5-3 1.5-1.5 0-2.6-.8-3.2-2.2-.5-1.3-.6-2.7-.3-3.2.3-.4 1.3.2 2.2 1.4 1.2 1.6 2 2 2.4 1.1Zm115.9 1.2a77 77 0 0 1 9 4.1c.4.4-1.1.5-3.3.1-2.2-.3-6.7-.8-10-1-4.3-.4-5.1-.3-3 .3 1.7.5 4.6 1 6.5 1 3 .2 3.2.4 1.5 1.1-1 .5-3.7.9-5.8 1-3.2 0-4 .5-5.8 3.5-1.2 2-2.6 3.4-3.2 3.2-.6-.3-1-1-1-1.8s.4-2.3.8-3.4 0-.8-.9.7c-1.4 2.4-1.8 2.6-3.5 1.5-1.1-.6-2-1.7-2-2.3 0-.7 2-3.5 4.6-6.3 2.5-2.8 5.3-5 6.2-5 .9 0 5.4 1.5 9.9 3.3Zm-50 2.3c3 1 5.4 2 5.4 2.5 0 .4-.8.8-1.8.8s-3.7-1.2-6.2-2.5c-2.4-1.3-4-2.4-3.5-2.4s3.3.7 6.2 1.6Zm38.3.8c0 .3.2.5.5.5a.5.5 0 0 0 0-1c-.3 0-.5.2-.5.5Zm-2 2c0 .3.2.5.5.5.2 0 .5-.2.5-.5s-.3-.5-.5-.5c-.3 0-.5.2-.5.5ZM79 165c-1 1.6-1 1.6-1 .1a9 9 0 0 1 .6-3.5c.7-1.6.7-1.7 1 0 .2.9 0 2.4-.6 3.4Zm89.5-3.7c0 .5-.5 1-1 1a1 1 0 0 1 0-2c.5 0 1 .4 1 1Zm34.5 16 .3 18c0 1.4 1.4 4.3 3.1 6.5l3.1 3.9-4.3.7a19 19 0 0 0-6.8 2.6c-1.4 1-2.5 2.7-2.5 3.7s-.6 2-1.3 2.2c-.7.2-1.2 0-1-.4 0-.5-.2-1.5-.5-2.4l-1.7-5.3c-.7-2-1.4-3.6-1.6-3.4-.2.3.3 2.6 1 5.3a31 31 0 0 1 1.6 5.7c0 .4-.4.7-.9.7s-1.2-1-1.5-2.4a30 30 0 0 0-4-7l-3.6-4.6 1.9-5.5c1-3 2.6-6 3.4-6.7.9-.6 2-2.5 2.7-4a34 34 0 0 0 1-8.3c0-5.1.1-5.4 2.1-4.8 1.4.5 2 .3 1.5-.4-.4-.6-1.6-1.1-2.8-1.1-1.3 0-1.8-.5-1.5-1.4.4-1-.3-1.4-2.6-1.3-2 .1-3.5.9-4.2 2.2-.6 1-1.6 2-2.4 2-.7 0-1.8-.8-2.4-1.7-.8-1.3-.6-2.6.6-5.3l1.7-3.6 10.7.3s8.3-3.1 10.8.3c1.7 2.4 0 7.7 0 7.7l.1 7.7Zm-35.3-12.4c1 .3 1.8 1 1.8 1.4 0 .5-.6 1.2-1.3 1.6a6 6 0 0 1-3.3.5c-1.1-.1-2.6.5-3.4 1.3-1 1.4-1 1.8.5 3 1.6 1.1 1.6 1.5.3 4-1.1 2.2-2.3 3-4.4 3-2.3 0-2.9.6-3.4 3.3a11 11 0 0 1-1.5 4c-.4.4-.4-1.4-.1-4a34.9 34.9 0 0 1 8.1-17c1.5-1.6 3.2-2.6 3.9-2.3l2.8 1.2Zm6 6.4a5 5 0 0 0 1.6 4.3 4.5 4.5 0 0 0 4.5 1.1c1.4-.4 2.7-1.4 3-2.3.2-1 .7-.4 1.1 1.6.4 1.8 1.4 3.2 2.2 3.2.8 0 1.8-1 2.3-2.2.7-2 .9-1.6 1 1.8a12 12 0 0 1-1.3 5.9c-1 1.2-2 1.6-3.5 1a6.3 6.3 0 0 1-3.2-2.5c-.6-1.2-2.1-2-3.7-2-1.5 0-4.5-.7-6.7-1.4s-3.9-1.7-3.7-2.4c0-.6-.2-1.2-.7-1.2-.5 0-.8-.6-.7-1.3 0-.7 1-2.6 2-4 1.2-1.9 2.4-2.6 3.9-2.4 1.7.2 2.1.8 1.9 2.8ZM196 169c.4.4 2.6.4 3 0 .3-.3 0-.6-.7-.6-.8 0-2.7.3-2.3.6Zm-13.7 9.3c0 .8.3 1 .7.7.4-.4.4-1 0-1.3-.4-.4-.7 0-.7.6Zm-22.2 10.2c-.3.8-.5.6-.6-.6 0-1 .2-1.6.5-1.3.4.3.4 1.2.1 1.9Zm-9.3.3c.4 1 0 1.2-.9.9-.8-.4-1.2-1-.9-1.5.3-.5.7-.9 1-.9.1 0 .5.7.8 1.5Zm10.3 3.2c-.4.3-.7 0-.7-.7s.3-1 .7-.7c.4.4.4 1 0 1.4Zm27.8 4.4c.3.5 1.6.9 2.9.9 1.3 0 2.6-.4 2.8-.8.3-.4-1-.8-3-.9-1.8 0-3 .2-2.7.8Zm38.2 25.8c0 .6-.8 1-1.9 1-1 0-2.2-.4-2.5-1-.4-.6.5-1 1.9-1s2.5.5 2.5 1Z" fill="#144490"/><path d="M135 114c-.5.8-1.6.7-2.6.7v.5l.5.3s.4.2.9.2c.3 0 .8 0 1-.2.3-.1 1-1.2 1.1-1.5 0 0 .3-.3.3-.7l.3-1.5v-1.2h1l1 .1.6.2.3.2.7.2c.2 0 .7.8.8 1 .6.4.6 1 1 1.5l.5 1.4.3.7.2.8v1c0 .4.1.8.6.8.1 0 .4-.2.4-.4v-.5l-.6-1.7-.7-1.9-.3-.4-.4-.9-.2-.5-.2-.3-.4-.3a5 5 0 0 0-.7-.6c-.3-.2-.6-.7-1-.7l-.7-.4-.9-.3-.6-.3c-.3 0-.6-.3-1-.3l-.7-.3c-.4 0-.7-.2-1-.4-.1 0-.3 0-.4-.2l-.3-.6c0-.3.3-.3.6-.3.6-.2.9 0 1.5 0h1.7c1 0 1.8.1 2.8.7.8.5.7.4 1.3 1.2.2.2 1 .6 1 .2 0-.2-.4-.3-.4-.4l-.4-.7-.5-.4c-.3-.4-.7-.7-1.1-.9a5 5 0 0 1-.4-.1l-.3-.1h-.3l-.6-.2-.9-.1h-.3c-.3-.2-.6-.2-1-.2H132c-.6 0-.9-.3-1.5 0 0 0-.2.4-.5.5h-.5c-.3 0-.6 0-.8-.2v.7c.2 0 .1.4.1.5 0 .2 0 .3-.2.2l-.5-.1c-.2 0-.4-.3-.4-.5-.2-.5-.6-.9-1-1.1-.2-.2-.5-.3-.6 0v1.8c0 .3-.3.1-.3.1s-.5-.3-.6-.8l-.2-.6v.6c0 .3 0 1-.5 1-.6 0-.4.5-.2.9l1 1.4 1 1.1c.2.2.3.2.5.2.4 0 .6-.3.9-.4.4-.3.9-.6 1.3-.6.6 0 .7.2.9.7.1.4.2 1-.2 1.2l-.5.4-.2.1c-.2.2 0 .3 0 .5.2.3 1.2.8 1.5 1l1.5.4v-.5c-.2-.2-1-.7-1.1-1-.2-.4-.6-.8-.6-1.3 0-.7-.2-1.7.5-2.2l1.6-.5.7-.1h1c.2.1.5.1.7.3l.4.2.4 1 .1.6c.1.3 0 .5 0 .8v.5l-.2.3-.4.7Zm29.4 11.6-.3.1-.2.5.7.4c0 .1.3 0 .4 0h.7c.3-.1.7-.3.8-.6l.2-.3.3-.5.3-.4.1-.6.3-.7v-.5l.1-.2v-.6c0-.2-.3-.7-.1-.9l.7-.2c.3 0 .7 0 1-.2 0 0 .2-.1.2-.3v-.4c-.3-.2-.6-.2-.9-.2-.3 0-.7 0-1 .2l-.8.4c-.2 0-.3-.3-.5-.3h-.3l-.5-.1H164l-.8.2h-.6l-.2.2-.3.3-.4.3c-.2.3-.5.6-.5 1v1.4l.5 1 .5.6v-.6s-.3-1.2 0-1.8l.5-.6s.5-.5.9-.6c.4-.3.5-.4 1-.4l1.4.1.4.5.3.4.2.5v1c0 .2 0 .3-.2.5l-.3.5-.2.3-.3.3-.5.2h-.4l-.5.1Z" fill="#144490"/><path d="M165 123.5a1 1 0 1 1-2 0 1 1 0 0 1 2 0Z" fill="#144490"/></svg>
