<svg role="img" width="280" height="280" class="relative z-10 w-[280px] -ml-6" aria-labelledby="remote_title" fill="none" xmlns="http://www.w3.org/2000/svg" viewBox="0 0 200 200"><title id="remote_title">Woman holding an old-fashioned remote with an antenna</title><circle cx="100" cy="100" r="95" fill="#CADEDF" stroke="#F0EADD" stroke-width="10"/><mask id="a2" style="mask-type:alpha" maskUnits="userSpaceOnUse" x="10" y="10" width="180" height="180"><circle cx="100" cy="100" r="90" fill="#CADEDF"/></mask><g mask="url(#a2)"><path fill-rule="evenodd" clip-rule="evenodd" d="M99 27.8c-1.2.3-5.3.7-9 .7-6 .2-7.1.4-10.8 2.2a78.1 78.1 0 0 0-23.2 20c-2.6 3.6-6.5 12-8.3 17.7-.8 2.5-2 5.2-2.8 6-2.6 3-6 10-7.7 15.8a120 120 0 0 0-3.5 22.5l-3 .6c-6.7 1-13.7 9-13.7 15.7 0 2.7.3 3.5 1.6 4.5.8.7 2.5 3 3.6 5.1a13 13 0 0 0 3.6 4.6c2 .9 1.8 1.4-.5 2.4-1.7.7-1.9 1-1.9 3.8 0 1.6.3 3.2.6 3.6.3.3.7 4.1.8 8.4.2 5 .6 8.2 1 8.6.5.5.8 1.1.8 1.5 0 .4.6 1.2 1.3 1.8.7.6 1.3 1.6 1.3 2.3 0 .6.7 1.8 1.5 2.6 1.3 1.2 2 1.4 4 1.1 1.6-.2 3 0 4 .5 6.1 3.3 8.3 4.2 10.5 4.2 1.3 0 3.1.5 4 1 1.3.8 2.1 1 4.6.4a479.2 479.2 0 0 0 37.7.5h32.3v-2.1c0-1.2.5-3.2 1-4.4a7 7 0 0 0 .6-3.6c-.2-.7 0-2 .6-2.8.6-.8 1-2.5 1-3.8 0-2-.4-2.8-2.3-4.4a21 21 0 0 0-3.8-2.7c-.9-.4-1.5-1-1.5-1.2 0-.6 7.4-3.3 17.4-6.1 4.6-1.3 7.8-4.4 7.2-6.9-.5-2-.2-2-6.9-.8l-10.3 1.7c-2.8.4-7.3 1.6-10 2.6-5.3 2-6.9 2.2-8.6 1-1-.8-1-.9.4-1.9 1.9-1.2 4-5.2 3.5-6.6-.3-.6 0-.9 1.2-.9 4.5 0 6.7-3.3 6.7-10v-4.2l-3.5-3.5-3.6-3.5 3.5-5a27 27 0 0 0 5.8-15.3c.4-3.2.9-5.1 1.6-5.9.6-.6 1.1-2 1.1-3.2.1-4.1 1-6 4.6-9.3 4.6-4.2 7.7-9 8.2-13 .3-1.6.8-3.6 1.3-4.3 1.1-1.6 1-7.9 0-9.9-.6-.9-1-2.9-1-4.5 0-5-1.9-8.9-6.5-13.4-4.9-4.9-10-7.6-17.9-9.6a46.3 46.3 0 0 0-18.6-.6Z" fill="#F0EADD"/><path fill-rule="evenodd" clip-rule="evenodd" d="M99 27.8c-1.2.3-5.3.7-9 .7-6 .2-7.1.4-10.8 2.2a78.1 78.1 0 0 0-23.2 20c-2.6 3.6-6.5 12-8.3 17.7-.8 2.5-2 5.2-2.8 6-2.6 3-6 10-7.7 15.8a120 120 0 0 0-3.5 22.5l-3 .6c-6.7 1-13.7 9-13.7 15.7 0 2.7.3 3.5 1.6 4.5.8.7 2.5 3 3.6 5.1a13 13 0 0 0 3.6 4.6c2 .9 1.8 1.4-.5 2.4-1.7.7-1.9 1-1.9 3.8 0 1.6.3 3.2.6 3.6.3.3.7 4.1.8 8.4.2 5 .6 8.2 1 8.6.5.5.8 1.1.8 1.5 0 .4.6 1.2 1.3 1.8.7.6 1.3 1.6 1.3 2.3 0 .6.7 1.8 1.5 2.6 1.3 1.2 2 1.4 4 1.1 1.6-.2 3 0 4 .5 6.1 3.3 8.3 4.2 10.5 4.2 1.3 0 3.1.5 4 1 1.3.8 2.1 1 4.6.4 1.9-.4 3.5-.4 4.1 0 1.5.7 1.9.7 1.9-.4 0-.5-.9-1.2-2-1.6-2.7-.9-14.3-7.5-15.3-8.6-.6-.7-.5-1 .1-1.6l4.3-3.4c5.3-4.2 5.1-4.6-1.7-4.1l-5.7.4-2.4-7.5a187 187 0 0 1-3-11c-.8-3.2-.8-3.6.3-4.2 2.8-1.6 6-5 6.5-6.8.2-1.2 1.6-2.9 3.5-4.5 3.9-3.2 6.2-7.8 7-13.8a115 115 0 0 1 4.3-18.6c1-3 1.1-4 .3-4-.4 0-.7.7-.8 1.7-.3 2.2-2 2.6-3.8.7-5.1-5.7-5.7-6.9-5.7-11.5 0-2.4.3-5.1.6-6 .7-1.8 2.3-2.3 1.8-.5-2 6.6-2 6.9-1 8.8.4 1 1.2 2 1.6 2 .6.3.6-.2-.2-1.8a7 7 0 0 1-.5-5c.6-3 1.3-3.6 2.7-2.7.7.5.5 1-.8 2.2-2 2.1-2 2.7 0 4.7.8.9 1.5 2 1.5 2.5s.3 1 .7 1h1.1c.3 0 .5-1.5.6-3.2.1-3.7-.2-4.1-1-1.3-.4 2-.4 2-1.6.7-1.1-1.3-1.1-1.3.4-2.9 1-.9 1.5-1.7 1.3-2-.2-.1.3-.3 1.2-.3.9 0 1.9.3 2.3.7.9.9 3.6-1.7 3.1-3-.1-.4.5-1 1.6-1.6 1-.4 2.2-1.2 2.7-1.7.7-.9.6-1-1-.7-2.2.4-2.2-.5 0-2.8 1-1 1.6-1.9 1.4-2a12 12 0 0 0-2.7-.6c-1.6-.3-2.6-.1-3.3.5-.5.5-1.2 1-1.5 1-.4 0-.8.3-.9.6-.4 1.4-3.7 0-4.2-1.8-.6-2.3-.6-7 0-9.3.7-2.4 2.5-2 3 .5 1 4.4 4.3 7.4 8 7.3h2l-2-.5c-4.6-1.1-7.3-4.3-7.4-8.8 0-2.5 2.3-8.5 3.3-8.5.3 0 1-1 1.6-2.2.6-1.2 1.5-2.4 2.1-2.6l1.8-.7c.5-.3.8 1 1 4 .3 5 1.8 7.7 5.2 9.3 3 1.5 5.9 2.1 5.3 1.2-.2-.4-1-.7-1.7-.7-2.2 0-6.1-3-6.9-5.2-.4-1.1-.7-3.8-.7-5.8 0-3.4.1-3.8 1.6-4.4a6 6 0 0 0 2.5-2.6c.6-1 3.1-4 5.6-6.7 4.4-4.6 4.6-4.8 7.5-4.8h3l-3.9 2c-2 1-4.8 2.7-6 3.8l-2.3 2 3.8-2.3c2.7-1.6 4-2 4.9-1.6.6.3 3.2.6 5.8.6 2.6 0 5.9.5 7.3 1 1.5.5 3.2.7 4 .5.8-.2 2.4.7 4.8 2.7a20 20 0 0 1 3.7 3.6c0 .3-1 .4-2.3.2-1.6-.3-2.2-.2-2.2.4 0 .5-.4.4-1.2-.3-1.4-1.3-5.3-.8-4.8.6.4 1-.5 1.2-1.5.2-1.1-1.1-2.4 0-1.4 1.2 1.6 1.9 6.2 3.4 9.7 3.3 4.2-.2 7.9.6 8.9 1.7.4.5 1.2 1 1.9 1 .6 0 1.3.2 1.5.5.2.4 1.2.5 2.2.3 1.7-.4 2-.2 2.1 1.4.2 1.5.6 2 2.1 2.2l2 .3-2.3 1.7c-1.2 1-3 2-4 2.2-2 .5-2 1.8-.1 2 2.2 0 5 1 6.8 2.2 1.5 1 1.6 1.6 1.7 5.6a55 55 0 0 1-.9 9.4l-1 5.6c0 2.2 6.8-4 10-9 .9-1.5 1.8-4 2-5.8.3-1.6.8-3.6 1.3-4.3 1.1-1.6 1-7.9 0-9.9-.6-.9-1-2.9-1-4.5 0-5-1.9-8.9-6.5-13.4-4.9-4.9-10-7.6-17.9-9.6a46.3 46.3 0 0 0-18.6-.6Zm27.5 9.2c2.4 2.7 2.5 3.3.5 3.7-1.2.2-2-.3-3.6-2.2-3.4-4-.4-5.5 3.1-1.5Zm-12 2.5c3.3 3.7 3.2 5-.1 3.3-2.7-1.4-7.1-5.5-6.7-6.2.2-.3 1.2-.6 2.1-.6 1.4 0 2.5.9 4.8 3.5Zm5.7-2.5c1.7 1 3.8 3.2 3.8 4.3 0 .3-.7.5-1.6.5-1 0-1.5.3-1.2.9.7 1.8-2 .7-4.2-1.9-4.4-4.8-4.4-4.8-1.4-4.8 1.5 0 3.5.5 4.6 1Zm-36.9 7.6c-1.4.4-3.2 1.1-4 1.6-.8.4-1.7.6-2 .4-1-.5-.9 1.4 0 3 .8 1.4 2.8 1.5 5.5 0 5.7-3.1 7.6-4 9.1-4 1.1 0 1.4-.2 1-.6-1-1-6.6-1.3-9.6-.4ZM98 49.2c.2.4-1.9.6-4.9.6-4 0-5.9.4-8 1.4l-3 1.4h2.8c1.5 0 3.6.5 4.6 1 2.2 1.2 7.7.8 10-.7 2-1.1 4-1 6.3.1 1 .6 2 .9 2.1.7.6-.5-5.2-4.2-6.6-4.2-.8 0-2-.2-2.6-.4-.6-.3-1-.2-.7.1Zm9.5 1.9c0 1 3.8 5.3 3.8 4.3 0-.4-.9-1.7-2-2.9-1-1.1-1.8-1.8-1.8-1.4Zm5.3 1.8c-.4.5-.4 1.3.3 2.6.9 1.8 3 4.2 3.6 4.3l1.3.3c2 .8 3-.2 2.6-2.4-.6-2.6-1.2-3.2-3-3.5l-2-.2c-.2 0-.8-.4-1.2-.9-.6-.6-1-.6-1.6-.2Zm8.5 4c.6 2.5.9 2.7.9.7 0-.9-.3-1.8-.7-2-.4-.3-.5.2-.2 1.4Zm17.1 2.3c.4 1.5-.8 3.3-2.8 4.4-.9.5-1 .2-1-1.6.2-3.6 3-5.7 3.8-2.8ZM78 59.1c0 .4.5.6 1.3.6.7 0 1.2-.2 1.2-.6 0-.4-.5-.6-1.2-.6-.8 0-1.3.2-1.3.6Zm-3.4 3.7c-3.7.2-4.9 1-2.2 1.7.8.1-.3.2-2.3.1-4-.2-4.1.4-.4 1.4 2.2.6 3.8.5 7.6-.3l1.6-.3-1.9-.9-2-.8h2.2c1.1 0 2-.4 2-.8 0-.3-.2-.5-.4-.5l-4.2.4Zm64.9 5.6c0 2-1.3 4.8-2 4.4-.3-.2-.3-.9 0-1.6.5-.8.5-1.6 0-2.6s-.5-1.5.1-1.9c1.2-.7 1.9 0 1.9 1.7Zm-55 3.5c-3.6 1.8-3.4 2.6.2 1.4 3.8-1.2 6.7-.4 11.2 3.1 3.2 2.6 5.1 3.2 5.1 1.7 0-1.1-1-2.4-4.3-4.8a11.7 11.7 0 0 0-12.2-1.4Zm-.1 6.4c0 .3-.6.4-1.4.2-1.2-.3-1.3-.2-1 1.3.1 1 0 1.7-.4 1.7-1 0 2.2 2.5 3.3 2.6.4 0 1.3-.6 2-1.3 2.7-2.6 8.4-.9 9.8 3 .4 1.2 1 2.1 1.3 2.1.3 0 .4-.4.2-1a6 6 0 0 1-.4-1.7c0-.3-.9-1.4-2-2.5-2.3-2.1-1.5-2.5 1.1-.4l1.9 1.4-1.5-1.7c-1.7-1.9-4.2-2.9-8-3.2a7.5 7.5 0 0 1-2.8-.7c-.6-.6-2.1-.5-2.1.2Zm35 4c-1 .3-1.7 1-1.7 1.5 0 .7 1 1 3.8 1 2 0 4.5.2 5.5.6l1.6.6-1.3 2.6-1.3 2.6-1.7-1.3a8.6 8.6 0 0 0-7.6-1.4l-1.9.6 2.6.1c2.5.1 2.5.1.6.6-1 .3-2.8 1-3.8 1.6-2 1-2 1-.2.7 1.4-.3 1.6-.2 1.3 1a2 2 0 0 0 .8 2.3c1.5 1 2 1 3.2-.2 1.2-1.3 1.3-2.9 0-2.4-1 .4-1.2-.3-.4-1.6.9-1.3 3.2-.2 3.7 1.7.6 3 .8 3.3 2.4 3.7 2.2.6 4-1.4 4.1-4.6.4-7.6.3-8.2-1.1-9.3-1.6-1.3-5.6-1.5-8.5-.4Zm-31 .6c-1.2 1.2-1 2.3.6 3.4 1 .6 1.7.7 2.5.3 2.1-1.1 1-4.4-1.4-4.4a3 3 0 0 0-1.7.7Zm3.7 1.2c0 .3-.3.6-.7.6-.4 0-.5-.3-.3-.6.2-.4.5-.7.7-.7.1 0 .3.3.3.7Zm10.5 1.9c.6 1 1 2.5 1 3.3 0 1.3.1 1.4.7.4.6-1.1-1-5.6-2.1-5.6-.3 0-.1.8.4 1.9Zm10 2.2a10.9 10.9 0 0 0-3.3 8.1c-.1 1.9.2 3.4 1 4.6.7 1.1 1 2.3.7 3.3-.5 2-3.4 5.5-4.6 5.5-.5 0-.9.3-.9.6 0 1.7 3.6-.5 5.6-3.3l1.7-2.5-1.2-3.2c-1.6-4.4-1-8.3 1.6-11.5 2.6-3.3 2.2-4.7-.5-1.6Zm-25 .2c0 .8 2.9 2 4.5 2 1.7 0 1-1-.8-1.4-.8-.1-2-.5-2.6-.7-.6-.3-1.1-.2-1.1 0Zm-43 3.8c3.8 5 4.5 7.9 1 4.6-1.2-1.2-2.2-2.6-2.2-3.1 0-.6-.5-1.7-1-2.4-1.7-2.4.1-1.6 2.1 1Zm75 4.7c1.3.8 3.2.8 3.2 0 0-.4-1-.6-2-.6-1.6 0-2 .1-1.2.6Zm-73.3 2 1.9 2.2-2.1-2c-1.2-1-2-1.9-2-2 0-.5.4 0 2.2 1.9Zm-.7 1.2c1 1 1.3 2.4 1.4 5.5 0 2.3-.2 4.1-.6 4.1-.3 0-.4 1-.1 2.4.3 2 .2 2.2-.4 1.1a13 13 0 0 0-2.4-2.6c-1.4-1.3-1.6-2-1.7-6.8-.1-2.9 0-5.5.1-5.8.4-.6 2.2.4 3.7 2.1Zm69.9-2c.8.8 3.4 1.2 3.3.4 0-.4-1-.7-2-.9-1.3 0-1.8 0-1.3.5Zm9.2 1.8a26 26 0 0 1-4.8 14l-5.3 8.5c-3.3 5.6-7 10-11.2 13.6l-4 3.3-4.5-.3c-6.8-.4-9.9-2.4-20-12.6a127 127 0 0 1-10.3-11.2c-2.4-3.6-2.4-1.6 0 2.6a86.3 86.3 0 0 0 16.2 19.7l6.7 6.2-1.2 3-4 10c-3 7.1-4.4 12.6-3.3 12.6.4 0 1-1.3 1.4-3 .6-2 1-2.8 2-2.8.7 0 2.3-.6 3.5-1.3 1.2-.7 2.3-1 2.5-.8.2.3.5 2 .8 3.9.4 3.2 1.6 5.3 1.6 2.9 0-1.3-1.1-8.6-1.6-11-.4-1.6.6-1.8 2-.4.6.5 2.1 1 3.8 1 2.6 0 2.9 0 3.8 2.3l1 2.7a20 20 0 0 1-3.4 3l-8.5 7.3-5.1 4.6-2-2.2L68.5 161c-11.8-14-18.4-23-19.1-26-.2-.8-.7-1.5-1-1.5-1 0 0 3.2 1.7 5.9A503 503 0 0 0 72.5 168a210 210 0 0 1 8.7 10.7c0 .6-7.7 6-9.3 6.4l-2 .5 1.8.3c3 .4 16-10 32.2-25.7 4.2-4.1 5.7-4.5 8.6-2 1 .9 3.8 2.4 6 3.3 10.1 4 12.3 6 10.7 9.8l-1 2-3.9-2.6c-2-1.3-4.7-3-6-3.6-1.2-.6-3-1.8-4-2.7-1-.8-2-1.3-2.3-1-.5.4 2.7 3 5.4 4.5l6.2 3.8c4 2.5 4.3 3 4.3 5 0 3.7-1 3.7-7 .3-3-1.7-5.5-3-5.7-2.8-.5.5 1 1.7 5.4 4.1 5 2.8 6.4 4.4 5.9 6.5-.2.8 0 1.2.5 1.2.6 0 1-.7 1-2.1 0-1.2.4-3.2.9-4.4a7 7 0 0 0 .6-3.6c-.2-.7 0-2 .6-2.8.6-.8 1-2.5 1-3.8 0-2-.4-2.8-2.3-4.4a21 21 0 0 0-3.8-2.7c-.9-.4-1.5-1-1.5-1.2 0-.6 7.4-3.3 17.4-6.1 4.6-1.3 7.8-4.4 7.2-6.9-.5-2-.2-2-6.9-.8l-10.3 1.7c-2.8.4-7.3 1.6-10 2.6-5.3 2-6.9 2.2-8.6 1-1-.8-1-.9.4-1.9 1.9-1.2 4-5.2 3.5-6.6-.3-.6 0-.9 1.2-.9 4.5 0 6.7-3.3 6.7-10v-4.2l-3.5-3.5-3.6-3.5 3.5-5c1.9-2.6 3.9-6.2 4.4-7.7 1.3-3.9 1.7-11 .6-11.4-.5-.2-.8.5-.8 2.2Zm-36.5 6.3a12 12 0 0 1-3.7 1.6c-1 0-1 1-.1 1.6.6.4 4.4-1.6 8-4 1.2-.8 1.2-.8 0-.8-.7 0-2.6.7-4.2 1.6Zm8.8-.6c-.5.5.7 2.8 1.5 2.8s.8-.8-.2-2.1c-.5-.7-1-1-1.3-.7Zm3.8.8c-.2.3.5.7 1.7 1 2.3.3 2.7.1 2-.9-.4-.8-3.2-.9-3.7 0ZM86 112.8c-.7 1.2 2.1 6.3 5.3 9.6 3.5 3.5 8 5.3 10.6 4a33 33 0 0 0 7.5-9c0-.6-3-2-4.5-2-.7 0-2.8-.5-4.6-1.3-4-1.5-13.6-2.4-14.3-1.3Zm6.2 1.4c2.9.6 9.9 2.5 13.3 3.6.7.2.7.4-.2 1.3-1 1-1.4 1-6.3 0-5-1.1-11.4-4-11.4-5 0-.7.6-.7 4.6.1Zm-48.8 4c-.5.5-1 .6-1.8 0-1.6-1-1.6-1.7.3-2.8 1.7-1 1.8-1 2 .6.1.8-.1 1.9-.5 2.2Zm47-.2c.4.5 2.3 1.2 10.8 3.6.7.2 1.1.5 1 .6-.2.2-4-.6-8.9-2-1.5-.4-1.5-.3.4 1.2 2.3 2 1.8 3-.6 1-1-.7-1.6-1.7-1.4-2.2.2-.5.1-.9-.2-.9-.8 0-3-1.9-2.2-1.9.4 0 1 .3 1.2.6Zm-56.9 5.5c.6 1.5-.3 4-1.8 4.8-1.1.6-1.3.6-1-.2.2-.5.1-1.2-.2-1.6-.9-.8.4-4 1.7-4 .5 0 1.1.4 1.3 1Zm6.2 2a5.1 5.1 0 0 1 1.7 3.6v1.8l-2-1.6c-1-1-2.2-1.7-2.5-1.7-.7 0-.8-2.7-.2-3.4.7-.7 1-.5 3 1.3ZM25 132.4c1.2 1.8 1.1 2.1-.8 1.8-2.2-.4-3.2-3-1.7-4.5 1-1 1.1-1 1.4.1a7 7 0 0 0 1 2.6Zm88-1c.5 1 .3 1.4-1.4 2.5-2 1.1-3 2.6-4 5.4-.5 1.7-1.6 1.4-2.3-.6-.6-1.5-.4-2 2.7-5a22 22 0 0 1 3.8-3.5c.3 0 .8.5 1.2 1.2Zm7-.4c0 1.6-2 3.7-3.5 3.7-2 0-2-.2.2-2.5 1.9-2 3.4-2.5 3.4-1.2Zm-87 3.7c-.7 1.2-2.6 1.8-2.6.7 0-.8 1.4-2 2.3-2 .7 0 .7.3.2 1.3Zm85.1 3c0 .7-.2.9-.5.5-.2-.4-.7-.9-1-1.1-.3-.3-.1-.5.5-.5s1 .5 1 1.1Zm-3.8 3.7c0 1.1-1 1.3-1.6.3-.5-.8.2-2 1-1.5.3.2.6.7.6 1.2Zm-6.2 4.3c-.5.9-1.5-.1-1-1.2.2-.7.4-.8.8-.1.3.4.4 1 .2 1.3Zm37.1 5c-1.1 1-3.7 2.3-5.7 2.9l-11.7 3.5-8.4 2.6c-1 0-7.8-2.7-7.5-3 .8-.8 13.5-5 18.4-6 6.2-1.4 8.5-1.6 10.3-.6.9.4 1.8.4 3.3-.3 3.2-1.4 3.6-1.2 1.3.9Zm-38.1 13.7c-1.8 1.4-1.3 1.8.8.7 1-.5 2-1.1 2-1.3 0-.6-1.7-.2-2.8.6Zm-.2 10.9c-.7.5-1 1-.9 1.3.2.2 1.1-.2 2-.9 1.7-1.4.8-1.8-1.1-.4Zm9.3 8.9c0 1.3.3 1.7 1.3 1.7.7 0 1.3-.1 1.3-.3 0-.2-.6-1-1.3-1.8l-1.3-1.3v1.7Zm-3.8-.3c0 .6 1.4 2 2 2 1 0 .5-1-.7-1.8-.8-.4-1.3-.5-1.3-.2Z" fill="#144490"/><path d="m106.6 156 .3-.5.4-.6.5-.8.3-.3.3-.3c.1-.3.4-.4.6-.6l.4-.3.9-.7 1.6-1 1.4-1 4.6-3c1.4-1 2.8-2 4.2-2.8 6.7-4.1 24.4-2.5 24.4-2.5l-16.3 44-25.8 12.1-18.7-10.3 7.8-24.7h10.9l.3-1c.4-1.4.8-2.8.8-4l1-1.7Z" fill="#C9DCDD"/><path d="m83.8 178.7-3.7-1.3-12.9 10.1 7.2 1a52 52 0 0 0 9.4-9.8Z" fill="#F0EADD"/><path d="M110.2 154.2c-.5-.6-1.4-2.7-2.2-2.8-.7.2-4.3 3.2-5 3.6-.4.3-1 .3-1.6.5-2 .6-3.8 1-5 2.7-1 1.4-2.4 2.7-3.4 4-1.2 1.7-3 3.6-3.8 5.6-1 2.8-2.9 5.6-4.5 8.2-.8 1.2-1.8 2.3-2.3 3.7-.3.9-.2 1.8-.2 2.8 0 3 0 6.5 1 9.5 1 2.4 4 3.4 6.3 4.4 1.9.8 4 1.7 6 1.2a15 15 0 0 0 5.4-2.2c1.8-1.1 3.7-2.4 4.9-4.2.8-1.3 1.3-3 2.4-4.2a18 18 0 0 0 4-9.7c0-1.2.3-2.4.5-3.5.2-1 .2-2.3.5-3.3.4-1 .1-2.6.1-3.7 0-3 0-6-1.2-8.8-.6-1.3-1-2.6-2-3.8Z" fill="#144490"/><path d="M112.3 156.7c-.8-.7-4-1-4-1s1.8 6.5.6 7.4c-.8.7-.2 4.8-.2 5.9 0 2.1-1 4.3-1.8 6.2-.5 1.4-.8 3-1.4 4.4-.3.7-1.3 1.1-1.7 1.8-1.2 1.7-1.5 3.8-2.4 5.7-.8 1.8-.1 5.9.6 7.6.8 1.8 2.9 1.4 4.6 1.4 3.4 0 7-1 10.3-1.8 2.3-.7 4.9-1.5 7-2.5 1-.5 3.9-1 2.8-2.4a6 6 0 0 1-1-2.3c-.2-.9-1.2-1.4-1.4-2.2a14 14 0 0 0-2.1-3.9c-.7-.8-.5-1-.8-2-.1-.9-.9-1.3-1.4-1.9-1.3-1.6-1.4-2.8-1.4-5 0-1.7-.2-3.9.5-5.4.6-1.4.4-4.3-.2-5.7-.7-1.7-2.1-3-3.8-3.8-.7-.3-2.3-.1-2.8-.5Z" fill="#144490"/><path d="M89.7 152.8c1 4.6-8.6 25-13.6 34.5l11.5 2c5.8-6.6 17.8-19.5 17.8-20.6 0-1-2.8-2.7-4-3.2-.8-1 2.3-1.7 5-3s.5-3.1-.8-3.6-9-1.3-10-2.7a9.2 9.2 0 0 1-1.8-3.9c-.4-2.2-4.8-3-4 .5Z" fill="#F0EADD"/><path fill-rule="evenodd" clip-rule="evenodd" d="M90.6 151.4c-.2.1-.3.5-.2 1.2.2.7.1 1.7 0 2.7l-1 3.7c-.8 2.8-2.1 6-3.6 9.5-2.7 6.4-6.1 13.4-8.5 18.2l10 1.8 5.5-6 5.3-6a232.3 232.3 0 0 0 6.5-7.8l-.2-.4a12 12 0 0 0-3.2-2.1h-.2v-.2c-.3-.2-.4-.5-.4-.9 0-.3.2-.6.4-.8l1.3-.8 1.6-.8h.2l2-.9c.6-.3.8-.5.8-.6v-.5l-.7-.6-.9-.5-1.8-.4-.6-.1a123.7 123.7 0 0 1-5.7-1.2l-1.3-.5-1-.8a10 10 0 0 1-1.9-4.1c0-.3-.2-.7-.6-1l-1.1-.4c-.4 0-.6.1-.7.3Zm14 17.1Zm-11.3-18.1c.6.4 1 1 1.2 1.8.2 1.4 1 2.7 1.6 3.5l.5.3a28.6 28.6 0 0 0 4 1.1c.9.3 1.7.4 2.5.5l.6.2 2.1.4c.4.1.9.4 1.3.7.4.3.8.7 1 1.1.3.5.4 1.1.2 1.7-.3.6-.8 1-1.6 1.4a43.3 43.3 0 0 1-2.2 1l-1.6.7-.6.3a14.5 14.5 0 0 1 3.2 2.2c.3.4.6.9.6 1.4v.4l-.2.3-.4.7-1.5 1.8a237.6 237.6 0 0 1-10.1 11.5l-5.7 6.4-.3.3-12.9-2.3.5-.8c2.4-4.8 6-12.3 9-19a106.2 106.2 0 0 0 4.4-13c.2-1 .2-1.6.1-2-.2-1 0-2 .4-2.6.5-.6 1.3-.8 2-.7.6 0 1.3.3 1.9.7ZM155 93.2h-2.5v-3h2.9v3h-.2Zm0 .7h-3.3v-4.5h4.3V94h-1Zm-2.6.8-.8 41h2.8L155 94h-2.7v.8Zm.7 0-.7 40.3h1.3l.6-40.3h-1.2Z" fill="#144490"/><path d="M157 88.8a3 3 0 0 1-3 2.9 2.9 2.9 0 0 1-2.8-3 3 3 0 0 1 3-2.9c1.5 0 2.8 1.4 2.8 3Z" fill="#144490"/><path fill-rule="evenodd" clip-rule="evenodd" d="M154 91c1.2 0 2.2-1 2.2-2.2 0-1.2-.9-2.2-2-2.2-1.3 0-2.3 1-2.3 2.1 0 1.2 1 2.2 2.1 2.2Zm0 .7a3 3 0 0 0 3-3c0-1.5-1.3-2.8-2.9-2.9a3 3 0 0 0-3 3 3 3 0 0 0 3 2.9Z" fill="#144490"/><mask id="b2" style="mask-type:alpha" maskUnits="userSpaceOnUse" x="134" y="102" width="47" height="89"><path d="M159 163.7c-2 1.3-5.4 18.6-6.8 27-8.4-1-17.3-5.5-17.4-6.6 0-.8 2.8-20 4.2-28.1-.9-.7-2.1-2.5-1.6-2.9-.7-2-.8-4-.8-6l1.7-.1c.6.7 5.1-2.2 6.2-1.3 1.3 1.2 4 .8 5 0 1-.9 9.2 1.6 9.7.9.5-.8 2 0 3-.8.8-.7 8-1.2 7.4-1.8-.6-.7.5-3.3.4-4.3 0-1 .3-3-.8-3.2-.4-.1-1-1.1-2-1.8-3.6-1-3.5-1.8-4.1-2-1.2-.3-1-3.8-.5-4 .5-.3 8.3.2 9 .9-.6-1-2-2.7-2.2-2.5-.3.3-1.3-1-1.7-.6-.4.3-3.8.1-4-.2-.4-.4-2-2.6-1.6-3 .3-.3-.5-2 1.7-2.5 1.9-.4 2.3 0 2.3.3a27 27 0 0 1 3-1c-.8.1-2 .3-2.5.2-2.8-.6-3.4-2.6-3.4-2.6-.3-1.3-.1-4 .9-3.8 1.8-.2 5 0 7 .5l-.2-8.6-.4-.5c1.2-2 4.2-5 6.1-1.4-.4.9-1.5 3-2.3 4-.8 1.1-.3 2.9.1 3.6l.5.6.2.8 1 1.4-.6 4.2a51 51 0 0 1 3.6 5.6l.6 3.2c2.2 2.2-.8 6.7-2.5 8.6-.7 1.6-2 5-2 5.6-.2.8-2 4.7-2.7 5.8-.7 1.1-4.5 7.2-5.4 8.3a62 62 0 0 1-8.2 8.1Zm-21.6-48.6c.6-4 2.8-3.4 3.8-2.7l3.2 4.2c-1.3 4-4.3 12-5.6 11.9-1.7-.2-2.3-8.3-1.4-13.4Z" fill="#F07E52"/></mask><g mask="url(#b2)"><path d="M159 163.7c-2 1.3-5.4 18.6-6.8 27-8.4-1-17.3-6.5-17.4-7.6 0-.8 2.8-19 4.2-27.1-.9-.7-2.1-2.5-1.6-2.9-.7-2-.8-4-.8-6l1.7-.1c.6.7 5.1-2.2 6.2-1.3 1.3 1.2 4 .8 5 0 1-.9 9.2 1.6 9.7.9.5-.8 2 0 3-.8.8-.7 8-1.2 7.4-1.8-.6-.7.5-3.3.4-4.3 0-1 .3-3-.8-3.2-.4-.1-1-1.1-2-1.8-3.6-1-3.5-1.8-4.1-2-1.2-.3-1-3.8-.5-4 .5-.3 8.3.2 9 .9-.6-1-2-2.7-2.2-2.5-.3.3-1.3-1-1.7-.6-.4.3-3.8.1-4-.2-.4-.4-2-2.6-1.6-3 .3-.3-.5-2 1.7-2.5 1.9-.4 2.3 0 2.3.3a27 27 0 0 1 3-1c-.8.1-2 .3-2.5.2-2.8-.6-3.4-2.6-3.4-2.6-.3-1.3-.1-4 .9-3.8 1.8-.2 5 0 7 .5l-.2-8.6-.4-.5c1.2-2 4.2-5 6.1-1.4-.4.9-1.5 3-2.3 4-.8 1.1-.3 2.9.1 3.6l.5.6.2.8 1 1.4-.6 4.2a51 51 0 0 1 3.6 5.6l.6 3.2c2.2 2.2-.8 6.7-2.5 8.6a78 78 0 0 0-2 5.6c-.2.8-2 4.7-2.7 5.8-.7 1.1-4.5 7.2-5.4 8.3a62 62 0 0 1-8.2 8.1Zm-21.6-48.6c.6-4 2.8-3.4 3.8-2.7l3.2 4.2c-1.3 4-4.3 12-5.6 11.9-1.7-.2-2.3-8.3-1.4-13.4Z" fill="#F0EADD"/><path d="M147.2 185.6c-1.1.5-3 .3-3.5 1.7-.2.7 0 1.6.3 2 .5.6.7 1 1.7 1.1l4 .5a7 7 0 0 1 1.7.3c.3.1.6-.2.8-.4.4-.3.5-.4.6-.9l.6-1.5c0-.1.3-.4.2-.6v-.3c.2-.2.2-.8.3-1l.3-1.3c.2-1.1.2-2.2.5-3.3l.4-2 .5-1.5.4-.7c.4-1 .8-2.1.8-3.2 0-1.3.4-2.5.7-3.8l.8-3.1c.3-.8 1.2-1.3 1.7-1.8.8-.7 1.7-1.3 2.3-2.1l1-1 .5-1c.8-.9 1.4-2 2-3.1.7-.9.8-2 1.5-2.7l2.2-2c.4-.3.8-.6 1-1l.5-.9 1.7-3.4 1-1.6.5-.7c.4-.5.6-1.2.7-1.7l.4-1.6c.1-.4.6-1 .9-1.4.2-.5.7-1 .8-1.6l.1-1.9c0-.3.4-.9.6-1l.7-1.4c.3-.3.5-.7.5-1.1.1-.4.5-.9.7-1.2.2-.5 1.2-2.4.2-2.4-.5 0-.7 0-1 .2-.3.2-1 0-1.2 0-.8-.4-1.7 0-2.5-.2-.5-.1-1.1-.1-1.4-.6l-.5-1.6c-.2-.4-.2-.8-.2-1.2v-1c-.3-.3-1-.1-1.3 0-.6.1-.8-.1-1.2-.5-.6-.7-1.7-.6-2.6-.6-1-.1-2 .1-3-.2-.6-.3-1.7-1-1.5-2v-1.2l-.2-.6.1-.4c-.8.7-1.8 1.3-1.3 2.5.2.7.6 2.6 1.5 2.9.5.1.7.7 1.3.7.6 0 1.2.3 1.8.5h1l1 .2c.4.2 1 .3 1.5.3.3 0 .6.4.8.6l1 .7 1.9 2 1.3 1.7.9 1.2v1c0 .3.2.8.1 1.2 0 .4 0 .5-.2.8 0 .1-.3.3-.3.1 0 0 .2-.5 0-.4l-.5.1c-.2 0-.3.2-.5 0l-.1-.5c-.3-.4-.3-1-.4-1.4-.3-1.4-1.7-2.5-3.1-2-.4 0-1 0-1.4.2-.3.2-1 1-.7 1.3l.7.7c.5.6-.1 1.5-.4 2-.1.3-.4.7-.3 1 .2 0 .3.2.3.4.2.5-.3 1.4-.5 2 0 .2-.3.6-.2.9v.8c-.2.6-.5.7-1 .8-1.5.5-3.3.5-4.7 1.3-.5.3-1 1-1.6 1.1-1 .2-2.3-.2-3.5-.2-1 0-1.6.1-2.5.4-1 .4-1.8.5-2.8.7-1.2.2-2.4 0-3.6-.1-1.2-.2-2.3 0-3.5.3-.9.3-1.7.6-2.6.3l-1.4-.8c-1.3-.7-3-1.3-4.3-.5-1 .5-1.2 1.5-1.4 2.5v1.1l.1.7.4 1.7c.2.6.3 1.3.7 1.9l.6.6 1.4 1.6c.3.4.3 1 .2 1.4 0 .3-.4 2 .1 2 .3 0 .3-.4.4-.5l.4-1.4c.2-.4.5-.8.4-1.3 0-.4-.4-.8-.5-1.2 0-.2 0-.7.2-.8v-1c0-.5-.5-1-.7-1.4-.2-.2-.4-.7-.4-1h.4c.8-.3 1.8 0 2.5.5l1.5 1 1.5.3h1.3l1-.5a10.7 10.7 0 0 1 4.1-.2c.6.1 1 0 1.6 0 2-.2 3.7-1.5 5.6-2 1-.3 1.8-.6 2.8-.7.6 0 1 0 1.5-.3.3-.2.7-.2 1-.2l1.6-.3c.4 0 2-.4 2.2.2.3.6 0 1.2-.4 1.7l-1.5 2.3c-.2.5-.6.8-.9 1.2-.6.9-1 2.2-1.1 3.3l-.1.7c-.2.4-.7.6-1 .9l-2.7 2.6c-1.1 1-2 2-3.5 2.2-.9 0-1.8.3-2.7.2-1.4 0-2.8.2-4.3 0l-2.6-.2c-.2 0-1.5.2-1.1.6.3.4.9.8 1.4 1l1.4.9c.5.2.7.3 1.2.3s1 0 1.5.2c.7.3 1.5.5 2 1 .5.6 0 1.1-.2 1.6-.4.9-1.2 1.5-1.7 2.3a3.6 3.6 0 0 0-.5 3.5 4 4 0 0 1 0 2.4l-.5 2.3c0 .4 0 1-.2 1.3-.5.7-.7 2-1 2.7-.3.9-1 1.7-1.8 2ZM139 113a2 2 0 0 0-.5-1.2c-.3.3 0 .5-.3.8-.3.3-.3 1-.4 1.5-.4 1.4-1 2.7-1.6 4a13 13 0 0 0-.7 1.9 11 11 0 0 0-.2 2.8c0 1 0 1.8.2 2.7l.3 1.6c.2.6.4 1.2.4 1.9v1.3c0 .7 0 1.3.5 1.9.4.4.7 0 1-.4a7.2 7.2 0 0 0 1.6-4.5l-.2-1.2-.1-.5c-.1-.2-.8-1-.7-1.2v-.6c.2-.6 0-1.2.1-1.8.3-1 .8-2.1.7-3.2 0-.8-.4-1.6-.5-2.4v-1.5c.2-.5.3-1.2.3-1.8Z" fill="#144490"/></g><mask id="c2" style="mask-type:alpha" maskUnits="userSpaceOnUse" x="135" y="103" width="36" height="47"><path d="m171 105-1.4 39-17.5 4.3-11.3 1.1-2.4-2-2.9-.6 4.5-30.6 1.1-7.5 25-5.2 4.8 1.6Z" fill="#144490"/></mask><g mask="url(#c2)"><path d="m171 105-1.4 39-17.5 4.3-11.3 1.1-2.4-2-2.9-.6 4.5-30.6 1.1-7.5 25-5.2 4.8 1.6Z" fill="#F0EADD"/><path d="M165.9 143.1a5 5 0 0 1 3.5 1.1c-.6-.2-1.7-.1-2.3-.3-.3-.1-1 0-1.4.2-.8.5-2 1-3 .9l-1.9.1c-.5 0-.7.3-1 .5-.7.2-1.5.3-2 .7-.2.1-.4.5-.6.5l-1.2.3c-.4.1-.8 0-1.1.2l-1.8.4-1 .2a5 5 0 0 0-3 .8c-.6.4-1.1.7-1.8.6-.3 0-.6 0-1-.2-.3-.2-.7 0-1 0-.4 0-.6 0-1-.2h-.6c-.7.5-1.4.5-2 .4-.7-.1-1.1-.8-1.8-.9-.7 0-.9-.8-1.5-1l-.3-.3-.3.2c-.4 0-.6 0-1-.3-.3-.2-5 .4-2.5-1.1.1-.6.5-.4.7-1 .2-.5 0-1.1-.2-1.6-.4-1 .6-3 2.3-3.1-1.6-2.4.4-2 .2-3V136c0-.3-.2-.6-.1-1 0-.7.2-1.5.4-2.3 0-.3.2-1 0-1.3-.3-.3 0-.9 0-1.2.2-.7 0-1.3.3-1.9.1-.2 0-.4.3-.6.1-.2.4-.2.7-.2h1.4c.7 0 1.3-.4 1.8-.7.4-.2.7-.1 1-.4l.8-.2c.8-.2 1.8 0 2.6-.2.7 0 1.3 0 2-.2l1.1-.4.5-.2h.9c.7-.1 1.6-.3 2.3-.6.4 0 .7-.2 1.1-.3l.9-.2c.4 0 1.2.1 1.5-.2.4-.2.7-.5.9-.9.2-.4-.6-.6-.9-.5l-1.8.3c-.8.2-1.5.2-2.1.5-.7.3-1.4.6-2.1.7h-1.9l-.8.3-.6.2-1 .2c-.4.1-1 .4-1.4.4h-2.5c-.1 0-.6.4-.7.3l-.6.2h-1c-.5 0-1 0-1.3-.4-.3-.3-.2-1-.3-1.3l.2-1 .4-1.6c.2-.9.6-1.6.7-2.5V117c.1-.3.1-.8.3-1 0-.3.7-1 .9-1 .6.2 1.1 1.1 1.5 1.7.3.5 1.1.3 1.6.7.3.4.6.3 1 .4.6.2 1.2.1 1.8.1h1l1.4-.1c.6-.2 1-.6 1.5-1 .4-.4 1-.5 1.5-.4.5.2 1.1 0 1.6-.1.3-.1.5-.1.7-.3.1-.1.5-.6.4-.7-.2-.3-1 0-1.3 0l-1.7.2-1.8-.2c-1.5-.1-2.8 1.3-4.3 1.3-.4 0-1.1 0-1.4-.2-.2-.2-.4-1-.7-1-.6.2-.5-1-.7-1.4l-.6-.4-.3-.5c-.2-.2 0-1.4 0-1.6.2-.8 0-1.7.7-2.2.3-.3 1.3-.3 1.7-.3.4 0 1 0 1.3-.2.5 0 1 0 1.4-.2 1.4-.2 2.5-1 3.8-1.5 1-.3 1.9-.3 2.8-.6.5 0 1-.2 1.4-.3l1.5-.6c.8-.2 1.6-.4 2.5-.4a9 9 0 0 0 3.7-.7c.6-.2 1.5-.8 2.2-.6l.3.1c.3 0 .6 0 .7.2l-.4-.1-.3-.1c-.3 0-.5.2-.5.5l.1.7-.2 1c-.1.5 0 1.1 0 1.6l.1.7s.3.2.3.4-.3.5-.3.8l-.1.7c-.3.2-.6.2-1 .2s-.6.2-1 .5c-.4.4-1.2.3-1.8.3-.7 0-1.2.4-1.9.5h-1.1l-2 .1c-1.3.1-2.4.5-3.6 1.1a15 15 0 0 1-4 1.1c-1.4.3-2.7.4-4 .8-.2 0-.6.2-.1.3h1.2c1 .2 2-.3 2.8-.5 1.4-.3 2.7-1 4-1.5.8-.2 1.5-.1 2.3-.2h2c.2 0 .4 1.1.5 1.3l.7 1-.2.7-.2.8c0 .3 0 .4.3.7.1.2.4.6.7.7.3.1.5.7.6 1v1.4c-.1.4-.4 1-.4 1.4 0 .4.4.6.5 1 .1.6-.7 1.1-1 1.6-.5.5-.5 1.4-.7 2a5 5 0 0 0-.3 2.4c0 .5.6.8.6 1.3 0 .3-.3.4-.6.5-.6.2-1 .3-1.6.1-.5-.2-.5 0-.8.4l-2.2 1.7c-.6.3-1.6-.2-2.2-.3-.7-.2-1.2-.6-1.9 0s-.4 1.1-.1 1.8c.2.6-.2 1.2-.6 1.6-.4.2-1 .7-1.4.5-.5-.1-.7-.6-1.3-.6l-1 .2c-1.5.2-2.1-1.5-3.6-1.2-.4 0-1.2 1-1.4 1.3-.2.3-.2.8-.2 1.2v1.1c-.1.6-.5.6-.8 1v.9c0 .7 1 .9 1.1 1.6v.5l-.1.4c0 .4 0 1-.2 1.4 0 .1-.3.2 0 .2l.3.1.7.5c.8.5 1.8-.1 2.5-.4l1.7-.7c.3-.2.8-.3 1.2-.2l2.1.3.8.2.3-.1 1.3-.3c.5-.2.7 0 1.1.2.8.6 1.1 1.8 2.2 1.8 1.2.1 1.5-.6 2.5-1.2.3-.2.7.3 1 .1.5-.1.9-.7 1.2-1 .7-.5.9-2.2 2-2 .3 0 .5.5.5.8 0 .5.3.8.7 1 .7.4.9.1 1.5-.1.4-.2.8-.1 1.2-.2l2-.5Z" fill="#144490"/><path fill-rule="evenodd" clip-rule="evenodd" d="m141.3 134.7-.6 11.2h-.8l.7-11.3h.7Zm1-.9-.7 11.2h-.7l.6-11.2h.8Zm1.1 1.4-.6 11.1h-.8l.7-11.2h.7Zm1-.9-.7 11.2h-.7l.6-11.2h.8Zm.8 1-.7 11.1h-.7l.6-11.2h.8Zm1.1-1-.6 11.1h-.7l.6-11.2h.7Zm1.4-1.2-.7 11.2h-.7l.6-11.3h.8Zm2.6 0-.6 10.3h-.7l.6-10.4h.7Zm1.6-1.4-.7 11.2h-.7l.6-11.2h.8Zm-3 2.7-.5 9.6h-.8l.5-9.6h.7Zm5.5-2.9-.7 11.2h-.7l.6-11.2h.8Zm-1.6 1.3-.3 9.9h-.8l.4-9.9h.7Z" fill="#144490"/><path d="M146.4 116.3c-.5 0-1.4 0-1.8.2-.2 0 0-.3-.3-.3-.4.1-.4 0-.7-.3 0-.1-.5-.6-.2-.7l.8-.1 1-.2c.3-.1.6-.4.8-.3.3.2.4.7.7.7h.6c.3 0 .5 0 .7-.2v-.3l.1-.6c.2-.4.6-1.1 1.1-1 .5 0 1.5.6 1.1.6-.2 0-.5 0-.6.2-.3 0-.5.4-.5.6 0 0-.2.4 0 .2l1-.4 1.8-.4c.3-.1.2-.4.4-.6a3 3 0 0 1 1.8-1.4c.3 0 .7.2 1 .5l.6.6c.7.2 1.3-.7 1.9-.9l.8-.5c.3-.2.8-.8 1.2-.7.4 0 .7.4 1 .7.2.3.4-.1.6-.1.2 0 .4-.3.7-.3.2 0 .9 0 1 .3.1 1.4.2 2.7.1 4.1l-.5 7.2c-.2 1.7 0 3.3-.1 5 0 .3-.3.7-.3 1.1v.8a25 25 0 0 1-.6 3.8 27 27 0 0 0-.3 4s-.2 1.5-.4 1.2c-.2-.1-.2-.4-.1-.6l-.1-.8c-.1-1-.3-1.7-.2-2.6v-1.6l.1-.7.4-1.9V128c-.1-1 0-1.6.2-2.5.5-1.8 0-3.5.1-5.3l.2-3.4.1-1.3c.3-.8.4-1.6.5-2.5v-.7l-.7.1c-.4.1-.8.3-1.2.2-.5 0-1 .3-1.7.3a5 5 0 0 0-1.8.4c-.7.3-1.4.8-2 1.3l-.6.3c-1 .3-2 .4-3 .5l-1.8.3c-.6 0-1.1.4-1.7.5l-1.2.1Zm-.5-3.8c-.3.2-.5.1-.8 0-.3 0-1 1-1.2.5v-.7c.2-.2.5-.5.7-.3.2.2.5.4.7.2.3-.3.5-.7 1-.7 0 0 .2.1.2.3l-.2.4-.4.3Zm5.1-1.9c.7.6-1 .6-1.2.8l-.4.3c-.2 0-.7.5-.9.3-.1-.2-.2-.4-.1-.6l.5-.2c.5 0 1-.3 1.3-.6h.7Zm4-.9h.3s0 .4-.2.4l-.7.1-.6.2-.6.1-.4.1c-.2 0 0-.4 0-.4 0-.2.4-.4.7-.4h.8l.6-.1Zm5.3-1.3h.3l.5.3c-.2.2-.4.2-.6.2-.8 0-1.4.8-2.2.8-.6 0-.4-1 0-1.1h.4l.7-.1c.3 0 .6-.2 1-.1Z" fill="#F0EADD"/><path d="m164.5 111.4-1.2.4 1.4.9c.4.4.7-1.5.7-1.7v-1l.4-1.5v-.5l-.1-.8c0-.4-.2-.8 0-1.2l.2-.7c0-.3 0-.6.2-1 0-.1.3-.5.2-.7-.1-.2-.6 0-.7.1-.6.2-1.2.1-1.7.3l-1.3.4h-2c-1.6.2-3 .7-4.5 1l-1.2.3-2.7.7c-.4 0-.8.2-1.1.4l-.4.2c-.3 0-.6 0-1 .2l-.8.3c-.4 0-.8 0-1.1.2-.8.2-1.4.7-2.2 1l-1.9.2h-.7l-1 .1c-.4.1-.1.2 0 .2l.4.2 1.6.2c.3.1.7-.1 1-.2.8-.1 1.7-.3 2.5-.6l1.4-.4 2.3-.6c.7-.3 1.6-.8 2.4-.8h1a18 18 0 0 0 5-1.5c.3-.2.5-.2.9-.2h1.3c.4 0 .7 0 1-.2.6 0 1.1-.2 1.7-.3l.6-.2s.2-.1.2 0l-.2.1v1.3l.2.9v1.9l-.3 1-.1 1.2c0 .4 0 .3-.4.4Z" fill="#F0EADD"/><path d="M170.7 106.8c.5.2 1.3 0 1.7.4.2-.2.6 0 .7-.3.1-.4.2-.1.1 0l.2 1.6v2.8l.2 5.3a76 76 0 0 1-.3 7.2l-.2 2.3v.6c-.6.8-.7 1.9-1 2.8l-.7 4c-.1 1.2-.4 2.2-.7 3.3a7 7 0 0 0-.4 3c0 .7 0 1.4-.3 2-.2.4-.7.1-1 0-.6-.2-1.9.1-2.4-.4l-1.1-.6-1.8-1c-.3-.2-.9-.5-.9-1 0-.3.3-.5.2-.9v-2.1c.2-1 0-2-.1-2.8a20 20 0 0 1 .1-8.3c.5-2.2.9-4.5 1.2-6.8.2-1 0-2.2.3-3.3l-.1-.4c-.6-.7.5-1 1-1.2.3-.1.8-.4 1-.7.2-.6 0-.8-.1-1.3-.3-1 0-5.6 1.5-5.3a7 7 0 0 1 1.8.6l1.1.5Zm-18.5 37.5c-1.3.3-2.3.3-3.3 1.2-.7.6-.8 1.6-1 2.5 0 .6-.2.7.2 1.1.5.5 1.2 1 1.8 1.3.5.2 1.2.4 1.7.2 1.3-.4 2.7-1 3.9-1.6 1.5-.7 3.2-.8 4.8-1.1l3-.7c1-.2 2.5-.2 3.3-1 .3-.2 1.3-.8 1.2-1.2-.1-.3-.5-.4-.6-.7-.3-1.2-2-2.2-3-1.3-.7.5-1.7 1.6-2.4.8-.4-.4.2-1.6-.6-1.7-.6-.1-.9-.2-1.4.3-.2.1-1.4 1.3-1.5 1.2-.3-.2-.4-.7-.7-.5-.2.2-.6.2-.8.2l-2.2.4c-.2.1-.7.5-1 .5h-1.4Z" fill="#144490"/><path fill-rule="evenodd" clip-rule="evenodd" d="M155.2 116c0-.3.2-.5.4-.6h.4l.4.2.3.5.3-1.6.2-.3s.2-.1.4 0l.4.1v.3l.3.8c.2 1.5.3 3 .1 4.4a27.5 27.5 0 0 0 .1 7.8 81.4 81.4 0 0 1 .3 6.2v-.1l.3-3.2c.2-1.9 0-3.7-.1-5.7l-.2-2a29.4 29.4 0 0 1 1-9l.2-.4.3-.3h.4l.2.3.2.5.2 1.8v1.8l.3 2.1.1.9a14.7 14.7 0 0 1 0 5 88.5 88.5 0 0 0-.4 3.8 33 33 0 0 1-.4 5.5c-.2 1.8-.4 3.5-.4 5.3 0 .2 1.4.3 1.2.3-.3 0-1.9-.1-1.9-.4 0-1.8.2-3.6.4-5.3v-.1c.2-1.8.5-3.6.4-5.3 0-1 0-2 .2-3l.1-1 .2-1.8c.1-1 0-2-.1-3l-.1-.8-.3-2.3v-1.7c0-.5 0-1-.2-1.5l-.3 1.2c-.5 2.4-.6 4.8-.5 7.3l.1 2c.2 2 .3 4 .1 6l-.2 3v.1c0 1.1-.1 2.2-.3 3.2v.9l-.2 1.7a15.9 15.9 0 0 1-.2 1.4l-.4.2a.4.4 0 0 1-.2-.2l-.1-.1v-.5c-.2-1.6-.2-3.1-.1-4.7v-4.6a81 81 0 0 0-.5-5.7c-.1-1.9-.2-3.8 0-5.7.3-1.4.1-2.8 0-4.3-.2.7-.3 1.6-.3 2.4v1.2c-.1 1.4-.2 2.8 0 4.2v4c0 1.3.1 2.5.3 3.8.4 3.2.2 6.3-.2 9.4l-.1.8v.3a2.6 2.6 0 0 1 0 .2v.1h-.1s-.1.2-.3.2a.4.4 0 0 1-.4-.3l-.4-2.8v-.2c0-.9-.1-1.7-.3-2.5a19.5 19.5 0 0 1-.4-5.5v-2.5c0-1.2.1-2.4.4-3.5l.1-.7.5-2.5a3.6 3.6 0 0 0 0-.4 30 30 0 0 0-.4-4.6l-.1-.3-.2.5v.6l-.1.4-.4 1.5a34.5 34.5 0 0 0-.5 2.2c-.2 1.7-.1 3.4-.1 5.2v1.5l.3 2.3v.1a13.5 13.5 0 0 1 .2 4.7v.2l-.2 2.3v.8a23.1 23.1 0 0 0 .2 2.5c0 .2 0 .4-.3.5-.2 0-.4-.1-.4-.3-.2-.6-.2-1.2-.2-1.8a26.1 26.1 0 0 1 0-1v-.7l.1-2.4v-.2l.1-2.1c0-.8 0-1.6-.2-2.4v-.2c-.2-.7-.3-1.6-.3-2.4v-1.4c0-1.8-.1-3.6.1-5.4a16.6 16.6 0 0 1 .5-2.2l.3-1.5v-.3h.1a9.8 9.8 0 0 1 .3-1.3Zm2.2-1.2Zm3.2-1Zm-4 10.8-.1.3c-.2 1.1-.4 2.2-.4 3.3v4c0 1.3.1 2.6.4 3.9.2.8.3 1.7.3 2.6.3-2.6.4-5 0-7.6l-.2-4v-2.5Zm-7.5 16.6c0 .2-.2.4-.4.5h-.5a.8.8 0 0 1-.3-.3l-.2-.5-.5 1.5-.2.3c-.1 0-.3.2-.5.1a.6.6 0 0 1-.3-.3v-.2c-.2-.3-.2-.7-.2-.8 0-1.5 0-3 .3-4.5.3-1.8.4-3.7.5-5.6v-2.1a81.5 81.5 0 0 1 .2-6.3v.1l-.5 3.2c-.4 1.9-.4 3.8-.4 5.7v2.1a29.5 29.5 0 0 1-1.8 8.9c0 .1 0 .2-.2.3l-.3.3-.4-.1-.2-.2-.1-.6a9 9 0 0 1 0-2.5 28.8 28.8 0 0 0-.1-4.1l.1-3.2.4-1.8a80.8 80.8 0 0 0 1.5-9.2c.4-1.8.7-3.5.8-5.3 0-.2-1.3-.4-1-.4.1 0 1.8.3 1.7.5 0 1.9-.4 3.6-.8 5.4-.4 1.8-.8 3.6-.8 5.3a18.7 18.7 0 0 1-.7 4l-.3 1.7a14 14 0 0 0-.1 3.9v5.5l.4-1.2a28.7 28.7 0 0 0 1.1-9.3c0-2 0-4 .4-5.9l.5-3v-.1l.5-3.2a58.7 58.7 0 0 1 1.2-4l.3.1v.6a41 41 0 0 1-.3 4.7v.4l-.4 4.2v5.7c0 1.9-.1 3.8-.5 5.7a17.7 17.7 0 0 0-.3 4.3c.3-.7.4-1.6.5-2.4l.1-1.1c.2-1.4.4-2.9.4-4.3 0-1 0-2 .2-3v-.9c.1-1.3.2-2.6 0-3.9a35.2 35.2 0 0 1 1.2-10 79.2 79.2 0 0 0 .2-.7s.1-.2.3-.2c.2 0 .3.2.3.3.2 1 .2 2 .2 3v.1l.1 2.5a14 14 0 0 1 0 4.1v1.5l-.2 2.4c0 1.2-.4 2.4-.7 3.5l-.2.7a24 24 0 0 0-.7 2.5v.3a23.8 23.8 0 0 0 0 5l.3-.5v-.6h.1l.1-.4.5-1.5.1-.3.5-1.8c.4-1.7.5-3.4.6-5.2l.1-1.5v-2.4a13.6 13.6 0 0 1 .2-5 40 40 0 0 0 .4-3 27 27 0 0 0 0-2.5c0-.2.1-.4.3-.4.2 0 .4 0 .5.3v2.7h-.1a34.5 34.5 0 0 0-.4 3.1v.2l-.3 2.1a12.8 12.8 0 0 0 0 2.6c.1.8.2 1.6.1 2.4v1.5a33.8 33.8 0 0 1-1.2 7.2l-.1.3-.5 1.4v.4a10.2 10.2 0 0 1-.5 1.2Zm-2.2 1Zm-3.4.6Zm5-10.4v-.3c.4-1 .7-2.2.7-3.2l.2-2.6.1-1.4a17 17 0 0 0 0-3.9l-.1-2.6c-.5 2.5-.8 5-.7 7.5a33.7 33.7 0 0 1-.1 5l-.1 1.5Z" fill="#144490"/></g><path fill-rule="evenodd" clip-rule="evenodd" d="M154.2 137c.1 0 .3 0 .2.2l-.1 4.3a.3.3 0 0 1-.5 0l.1-4.3c0-.2.2-.3.3-.3Zm-1.2-.2.2.3-.1 4.2a.3.3 0 1 1-.7 0l.2-4.2c0-.2.2-.3.4-.3Zm-1.3.5.1.2-.1 4.4-.3.2a.2.2 0 0 1-.2-.2l.2-4.4c0-.1.1-.2.3-.2Zm-1.3.5c.2 0 .3.2.3.4l-.1 4a.4.4 0 0 1-.8 0l.2-4c0-.2.2-.4.4-.4Zm-1.5.8c.1 0 .3.1.3.3l-.1 4.1a.4.4 0 1 1-.8 0l.2-4c0-.3.2-.4.4-.4Zm-1.4 1.2c.1 0 .2.1.2.3v2.5a.3.3 0 0 1-.5 0V140c0-.2.1-.3.3-.3Z" fill="#F0EADD"/><path d="m158.9 122.5.8-.1c.6-.1 1.3 0 1.3.6 0 .4 0 .4-.3.5l-1.6.4c-.5 0-1 .3-1.4.4-.7 0-7.4.9-7.4.3 0-.3 1.6-.6 1.9-.8.3-.2.6-.1 1-.2.5 0 1-.5 1.6-.5 1 0 2-.2 3.1-.4l1-.2Zm-8.5-1.4c.6 0 1 .5 1 1 0 .4-.3.6-.6.8-.2.2-.7.2-1 .2-.3 0-.8.4-.8-.1l-.1-1v-.7c.1-.1.3 0 .4 0l1.1-.2Zm10.3-9.5-1.5.4c-1 .3-1 1.5-.1 1.2.7-.3 1.5-.3 2.2-.5.3-.2 1-.3 1 0l.1 1v1.3c0 .4.2.6.4.3.2-.2.4-.6.4-.9 0-.2 0-.6.2-.8v-.9c0-.3.3-1.2 0-1.5-.2-.2-1.3.1-1.5.2l-1.2.2Zm-11.4 14.9c.3 0 1 0 1.2-.3.3-.2.3.6.3.8 0 .2 0 .4-.2.5-.6.1-1.1.5-1.7.4-.5 0-.2-1-.2-1.3h.6Z" fill="#F0EADD"/><path fill-rule="evenodd" clip-rule="evenodd" d="m140.8 108.4 25.3-5.2 5.2 1.6-1.3 39.5-17.8 4.4-11.5 1.1-2.5-2-3.1-.7 5.7-38.7Zm.6.6-1 6.8 1.9-.4 1.2-3.4 3.3-.7-1.1 3.3 1.8-.3.7-3.6 3.1-.6-.6 3.5 1.4-.3.2-3.8h3.2l.2 3 1.4-.3.6-3.2 3.6-.4v2.7l1-.2 2.7-.6.7-6.5-24.3 5Zm25-5-.7 7.1-3 .6-1.1 28.4 7.7 3.4 1.3-38.2-4.2-1.3Zm2 40-7.3-3.3-24 6 1.5.4 2.3 2 11.2-1.2 16.4-4Zm-32.5 2.3 25-6.2 1-28.2-21.6 4.6-4.4 29.8Zm24.7-34.9v-2l-2.3.2-.4 2.4 2.7-.6Zm-5.6 1.2-.2-2.3H153l-.1 2.8 2-.5Zm-5.1 1.1.5-2.7-1.6.3-.5 2.8 1.6-.4Zm-5 1.1.8-2.5-1.6.3-1 2.6 1.7-.4Z" fill="#144490"/><mask id="d2" style="mask-type:alpha" maskUnits="userSpaceOnUse" x="161" y="102" width="20" height="38"><path d="M177.2 136c-.7 1.5-.7 1.3-.8 2l-2-3.4-1 3.9c-.6-.7-3.3 2.2-3.4 1.2 0-1 .3-3-.8-3.2-.4-.1-1-1.1-2-1.8-3.6-1-3.5-1.8-4.1-2-1.2-.3-1-3.8-.5-4 .5-.3 8.3.2 9 .9-.6-1-2-2.7-2.2-2.5-.3.3-1.3-1-1.7-.6-.4.3-3.8.1-4-.2-.4-.4-2-2.6-1.6-3 .3-.3-.5-2 1.7-2.5 1.9-.4 2.3 0 2.3.3l3-1c-.8.1-2 .3-2.5.2-2.8-.6-3.4-2.6-3.4-2.6-.3-1.3-.1-4 .9-3.8 1.8-.2 5 0 7 .5l-.2-8.6-.4-.5c1.2-2 4.2-5 6.1-1.4-.4.9-1.5 3-2.3 4-.8 1.1-.3 2.9.1 3.6l.5.6.2.8 1 1.4-.6 4.2a51 51 0 0 1 3.6 5.6l.6 3.2c2.2 2.2-.8 6.7-2.5 8.6Z" fill="#D9D9D9"/></mask><g mask="url(#d2)" fill="#F0EADD"><path d="M159 163.7c-2 1.3-5.4 18.6-6.8 27a31 31 0 0 1-17.3-9.2c0-.9 2.7-17.4 4.1-25.5-.9-.7-2.1-2.5-1.6-2.9-.7-2-.8-4-.8-6l1.7-.1c.6.7 5.1-2.2 6.2-1.3 1.3 1.2 4 .8 5 0 1-.9 9.2 1.6 9.7.9.5-.8 2 0 3-.8.8-.7 8-1.2 7.3-1.8-.5-.7.6-3.3.5-4.3 0-1 .3-3-.8-3.2-.4-.1-1-1.1-2-1.8-3.6-1-3.5-1.8-4.1-2-1.2-.3-1-3.8-.5-4 .5-.3 8.3.2 9 .9-.7-1-2-2.7-2.2-2.5-.3.3-1.3-1-1.7-.6-.4.3-3.8.1-4-.2-.4-.4-2-2.6-1.6-3 .3-.3-.5-2 1.7-2.5 1.8-.4 2.3 0 2.3.3l3-1c-.8.1-2 .3-2.5.2-2.8-.6-3.4-2.6-3.4-2.6-.3-1.3-.1-4 .9-3.8 1.8-.2 5 0 7 .5l-.2-8.6-.4-.5c1.2-2 4.2-5 6.1-1.4-.4.9-1.5 3-2.3 4-.8 1.1-.3 2.9.1 3.6l.5.6.2.8 1 1.5-.6 4c1.4 2 2.8 4.2 3.6 5.7l.6 3.2c2.2 2.2-.8 6.7-2.5 8.6-.7 1.6-2 5-2 5.6-.2.8-2 4.7-2.7 5.8-.7 1.1-4.5 7.2-5.4 8.3a62 62 0 0 1-8.2 8.1Zm-21.6-48.6c.6-4 2.8-3.4 3.8-2.7l3.2 4.2c-1.3 4-4.3 12-5.6 11.9-1.7-.2-2.3-8.3-1.4-13.4Z"/><path d="M147.2 185.6c-1.1.5-2.3 2-3.5 1.7.4.3 0 1.6.3 2 .5.6.7 1 1.7 1.1l4 .5a7 7 0 0 1 1.7.3c.3.1.6-.2.8-.4.4-.3.5-.4.6-.9l.6-1.5c0-.1.3-.4.2-.6v-.3c.2-.2.2-.8.3-1l.3-1.3c.2-1.1.2-2.2.5-3.3l.4-2 .5-1.5.4-.7c.4-1 .8-2.1.8-3.2 0-1.3.4-2.5.7-3.8l.8-3.1c.3-.8 1.2-1.3 1.7-1.8.8-.7 1.7-1.3 2.3-2.1l1-1 .5-1c.8-.9 1.4-2 2-3.1.7-.9.8-2 1.5-2.7l2.2-2c.4-.3.8-.6 1-1l.5-.9 1.7-3.4 1-1.6.5-.7c.4-.5.6-1.2.7-1.7l.4-1.6c.1-.4.6-1 .9-1.4.2-.5.7-1 .8-1.6l.1-1.9c0-.3.4-.9.6-1l.7-1.4c.3-.3.5-.7.5-1.1.1-.4.5-.9.7-1.2.2-.5 1.2-2.4.2-2.4-.5 0-.7 0-1 .2-.3.2-1 0-1.2 0-.8-.4-1.7 0-2.5-.2-.5-.1-1.1-.1-1.4-.6l-.5-1.6c-.2-.4-.2-.8-.2-1.2v-1c-.3-.3-1-.1-1.3 0-.6.1-.8-.1-1.2-.5-.6-.7-1.7-.6-2.6-.6-1-.1-2 .1-3-.2-.6-.3-1.7-1-1.5-2v-1.2l-.2-.6.1-.4c-.8.7-1.8 1.3-1.3 2.5.2.7.6 2.6 1.5 2.9.5.1.7.7 1.3.7.6 0 1.2.3 1.8.5h1l1 .2c.4.2 1 .3 1.5.3.3 0 .6.4.8.6l1.1 1.2c.6.7 1.2.9 1.8 1.5l1.3 1.7.9 1.2v1c0 .3.2.8.1 1.2 0 .4 0 .5-.2.8 0 .1-.3.3-.3.1 0 0 .2-.5 0-.4l-.5.1c-.2 0-.3.2-.5 0 0-.2 0 1-.1-.5-.3-.4-.8 1.5-.9 1-.4-1.2-.4-2.2-1.8-1.8.6 1.5-.5-.3-.8 0-.3.2-3-1-2.8-.6.2.3.6 3.7 1 2.3.5.6.3-.6 0 0-.1.2-.4.6-.3.8.2.2.3.3.3.5.2.5-.3 1.4-.5 2 0 .2-.3.6-.2.9v.8c-.2.6-.5.7-1 .8-1.5.5-3.3.5-4.7 1.3-.5.3-1 1-1.6 1.1-1 .2-2.3-.2-3.5-.2-1 0-1.6.1-2.5.4-1 .4-1.8.5-2.8.7-1.2.2-2.4 0-3.6-.1-1.2-.2-2.3 0-3.5.3-.9.3-1.7.6-2.6.3l-1.4-.8c-1.3-.7-3-1.3-4.3-.5-1 .5-1.2 1.5-1.4 2.5v1.1l.1.7.4 1.7c.2.6.3 1.3.7 1.9l.6.6 1.4 1.6c.3.4.3 1 .2 1.4 0 .3-.4 2 .1 2 .3 0 .3-.4.4-.5l.4-1.4c.2-.4.5-.8.4-1.3 0-.4-.4-.8-.5-1.2 0-.2 0-.7.2-.8v-1c0-.5-.5-1-.7-1.4-.2-.2-.4-.7-.4-1h.4c.8-.3 1.8 0 2.5.5l1.5 1 1.5.3h1.3l1-.5a10.7 10.7 0 0 1 4.1-.2c.6.1 1 0 1.6 0 2-.2 3.7-1.5 5.6-2 1-.3 1.8-.6 2.8-.7.6 0 1 0 1.5-.3.3-.2.7-.2 1-.2l1.6-.3c.4 0 2-.4 2.2.2.3.6 0 1.2-.4 1.7l-1.5 2.3c-.2.5-.6.8-.9 1.2-.6.9-1 2.2-1.1 3.3l-.1.7c-.2.4-.7.6-1 .9l-2.7 2.6c-1.1 1-2 2-3.5 2.2-.9 0-1.8.3-2.7.2-1.4 0-2.8.2-4.3 0l-2.6-.2c-.2 0-1.5.2-1.1.6.3.4.9.8 1.4 1l1.4.9c.5.2.7.3 1.2.3s1 0 1.5.2c.7.3 1.5.5 2 1 .5.6 0 1.1-.2 1.6-.4.9-1.2 1.5-1.7 2.3a3.6 3.6 0 0 0-.5 3.5 4 4 0 0 1 0 2.4l-.5 2.3c0 .4 0 1-.2 1.3-.5.7-.7 2-1 2.7-.3.9-1 1.7-1.8 2ZM139 113a2 2 0 0 0-.5-1.2c-.3.3 0 .5-.3.8-.3.3-.3 1-.4 1.5-.4 1.4-1 2.7-1.6 4a13 13 0 0 0-.7 1.9 11 11 0 0 0-.2 2.8c0 1 0 1.8.2 2.7l.3 1.6c.2.6.4 1.2.4 1.9v1.3c0 .7 0 1.3.5 1.9.4.4.7 0 1-.4a7.2 7.2 0 0 0 1.6-4.5l-.2-1.2-.1-.5c-.1-.2-.8-1-.7-1.2v-.6c.2-.6 0-1.2.1-1.8.3-1 .8-2.1.7-3.2 0-.8-.4-1.6-.5-2.4v-1.5c.2-.5.3-1.2.3-1.8Zm26.8.8 1 .1c.5-.4 2 .6 2.6.2.4-.3 1.3.3 1.7.4.6 0 1 .3 1.5.5l3 2.5c.5.3.6-.1 1 .4l1.1 1.6c.3.4.5 1 .5 1.5 0 .4.2 1-.1 1.2-.4.3-.7.4-1 0l-.6-.3c-.2-.3-.2-.6-.2-.9-.1-.4-.5-1-1-1s-.9-1-1-1.3l-.4-.8a2 2 0 0 0-1-.8l-1.4-.2h-1.1l-.4-.2h-1.5c-.6.1-1.2.4-2 .3-.4 0-.7-.3-1-.7-.3-.3-.9-.3-1.2-.3-.6 0-.9-1.2-.5-1.6.3-.4.8-.5 1.2-.6h.8Zm8.4-10.3c.8 0 1.4.2 2 .8.1 0 .4.7.2.8-.2.2-.8-.2-1-.3l-.7-.2c-.4 0-1 0-1.4.2l-1.4.6c-.3 0-.4 0-.5-.2-.2-.3 0-.5.2-.8l.6-.3c.1-.1.4-.4.6-.4l1.4-.2Zm5 24.1c.4.3.7.8 1 1.2.4.4.2.6-.3 1-.6.4-1.2-.3-1.5-.7-.4-.4-.7-1.3-.7-1.9 0-.3.5 0 .6 0l.9.4Z"/><path d="M169.7 121.4c.6 0 1.8 0 2.2.5.3-.1.8 0 1 .1.5.2.8.5 1.2.8.4.3 1 .9 1.2 1.4l.4.7s.3.2.2.3h-.4c-.6 0-1 0-1.4-.4-.4-.4-.9-.6-1.3-.8a5 5 0 0 0-2.7-.5c-.8 0-1.6 0-2.4.2-.9.2-1.9.5-2.7 0a3 3 0 0 1-1.2-1.3l-.7-.9c-.1-.1.1-.1.2-.2.3-.3 1-.2 1.4 0 .2 0 .5 0 .6.2l.4.4c.3.2.7.2 1 .3h.7c.7-.3 1.4-.7 2.3-.8Zm-.4 7.9c.4 0 1.2.3 1.6.1.4-.4.8.5 1.1.8 1 .9 1.5 1.7 2.3 2.3.4.7 1 1.1 1.3 1.8l.7 1.3c0 .2.3.5 0 .3-.5 0-1-.2-1.4-.5-.4-.5-.5-1.1-.9-1.6-.6-.7-1.1-1-2-.7l-.3-.2c-.1-.2-.3-.2-.5-.3-.4-.2-.7-.4-1.2-.4-.7.2-1.3.3-1.8-.3-.4-.5-1-.5-1.5-.7-1-.4-2.2 0-3.3-.2-.6 0-.6-.5-.7-1-.1-.2 0-1 .3-1.1.7-.2 1.6 0 2.2 0l1.5.2 1.5.1 1.1.1ZM153 159.1c-1 .3-2 .8-2.7 1.4 1.2 1.4-2.8 3-3.7 2.9-.7 0-1.4 0-2-.2-.6-.2-1.1-1-1.3-1.5-.3-.7-.7-1.4-.9-2.2-.1-.4-.4-.8-.7-1.1l-.5-1.4c-.1-.7.2-1.5.6-2.2.4-.7 1-1.4 1.8-1.6.5-.1 1 .2 1.6 0 .4 0 .8-.3 1.3-.2h2c.7-.1 1.5.5 2.2.1.7-.4 1.5-.5 2.4-.7.7-.1 1.4-.5 2.1-.7.9-.3 1.6-.9 2.5-1 .5 0 .7-.4 1.1-.5.5 0 1.4.6 1.9.7.5.2.4.3.6.8.5.9 0 1.8-.4 2.6a6 6 0 0 1-1.9 2.2c-.9.7-1.7 1.6-2.8 2-1 .3-2.2.2-3.3.6Zm-10.3 3.5c.2.1.3.7.6.8l1 .5c.4.1.7.3.9.7.1.3.4.6.4 1 0 .6.4 1.2.4 1.8l-.3 1-.2.6c.1.5 0 1 0 1.6v1.3c-.2 1-1 1.8-1.4 2.6-.6 1.2-1.3 2.4-1.5 3.7l-.2 2 .1 1.5-.1.8v.9l-.4.4c-.7.3-1.7-1.6-2-2-.5-.3-1.4-.6-1.4-1.3l-.2-1c0-.2.1-.6 0-.8v-1c0-.3 0-.8.2-1.2.3-.7.3-1.5.5-2.3.2-.9.6-1.8.7-2.7.2-1.7.3-3.4.7-5 .2-.9.5-1.7.9-2.5.3-.5.8-1 1.3-1.4Z"/><path d="m178.8 126.4.6.4-.5-1-1.3-1.8-.6-.6-.8-.6-1-.7-.5-.5-1-1-.6-.8-.3-.4-.5-.4-.3-.2h-.4l-.4-.1h-2.7a7 7 0 0 0-1-.2h-1.9l-.7-.2-.6-.3-.6-.7c0-.2-.2-.3-.4-.5 0 0 0-.1 0 0v.5l.1.4.3.4c0 .2.2.4.3.5l.3.3.3.3.2.2.3.3.4.2.7.3h2.5c.2-.1.4-.2.6-.1h.5l.2.2.4.1 1.3.7.7.4c.1 0 .3 0 .4.2l.4.3 1 .9.4.4.5.4 1 .7.3.3.1.1.5.4.7.6.3.2.5.3.3.1Z"/></g><path fill-rule="evenodd" clip-rule="evenodd" d="M141 112c-.6-.5-1.5-.9-2.3-.4-.8.4-1.4 1.5-1.7 3.5a37.7 37.7 0 0 0 1 13.7l.3.1h.3l.3-.1v-.2c.7-2 .6-3.6.6-5v-.1c-.1-1.5-.2-3 .5-5l1-6.4v-.2Zm-3.3 3.2c.3-2 .9-2.8 1.4-3 .3-.2.8 0 1.2.2l-1 6c-.7 2-.6 3.6-.6 5.1 0 1.4.2 2.6-.3 4.2l-.6-3.5a37 37 0 0 1 0-9Zm25.1 2.6.4-.1-.4.1v-2.6c0-.4.2-.8.4-1.1.1-.3.4-.6.9-.5 1.7-.2 4.6-.1 6.7.3l-.3-8-.5-.6.2-.2c.6-1 1.7-2.3 3-3 .6-.2 1.3-.4 2-.1.5.2.8.6 1.1 1.3l.3.5v.2l-.5 1.1-1.5 3c-.3.4-.4 1.1-.3 1.8a4.5 4.5 0 0 0 .3 1.2l.4.2.1.2v.2l.1.1.2.7v.1l.1.1a10.4 10.4 0 0 1 .7 1l.2.5v.9a43 43 0 0 1-.5 3.2l.1.1c1.3 1.9 2.6 4 3.4 5.5l.6 3.1c1.2 1.3 1 3.1.2 4.7-.5 1.4-1.6 2.6-2.5 3.6l-.5.5-.4 1.5-.5 1.8a66.3 66.3 0 0 0-2 5.3 32.8 32.8 0 0 1-4.1 7.2 82.5 82.5 0 0 1-2.8 4 77 77 0 0 1-8.9 9.3 22 22 0 0 0-.8 2.4c-.4 1-.5 2.2-.7 3.5l-.6 3.8-1.7 6.8a131 131 0 0 0-2.2 9.3c-.5 3.1-16.3-5.1-17.7-6.7l-.2-2.6c-.3-3 .3-7.3.7-10.3.5-2.8 1.2-5.8 1.9-8.6.6-2.4 1.1-4.6 1.4-6.5a4 4 0 0 1-1.2-1.4l-.5-1v-.4a21 21 0 0 1-.7-6v-.4l2.3-.1.1.1c.2.3.4.3.8.3.5 0 1 0 1.7.6l.6.3 1 .3a18.6 18.6 0 0 0 7-.5l.9-.3 1.1-.2 3-.3h.1c1 0 2-.2 2.8-.3a7.8 7.8 0 0 0 1.3-.3c.2-.2.5-.4.8-.4h.8c.6 0 1 0 1.4-.3.1-.2.4-.3.7-.4l1-.2 2.4-.5h.3a33.8 33.8 0 0 0 2.8-.6v-.8a8 8 0 0 1 .3-1.9 31 31 0 0 0 .3-1.5v-1.9l-.2-.7-.4-.3c-.2 0-.4-.2-.5-.3l-.4-.4-1.2-1.1a9.9 9.9 0 0 1-3.2-1.3 5.2 5.2 0 0 1-.6-.4.7.7 0 0 0-.2-.2c-.5-.2-.8-.6-.9-1a7 7 0 0 1 0-3.4l.2-.2s0-.2.2-.2h.3l.3-.1h1.1a53.6 53.6 0 0 1 6.4.7 21 21 0 0 0-1.1-1.4h-.3a1 1 0 0 1-.3 0l-.4-.4h-.1a2.7 2.7 0 0 0-.5-.3l-.2.1h-.2l-.5.1a11.8 11.8 0 0 1-3.5-.3l-.2-.2a14.5 14.5 0 0 1-1.6-2.5v-.9a1.5 1.5 0 0 0 .1-.4v-.7l.6-1c.3-.2.7-.5 1.4-.6a6 6 0 0 1 1.4-.2 4.7 4.7 0 0 1-2.2-2 3.2 3.2 0 0 1-.2-.4Zm12.4.9 2.5 4.3 1.2 3a54.9 54.9 0 0 0-9.2-6.3 3.6 3.6 0 0 0-.6 0l-.5.1a90 90 0 0 1-1.9.1 4.5 4.5 0 0 1-2.6-1.4 3.3 3.3 0 0 1-.6-.8 7 7 0 0 1 0-2.4c0-.3.2-.6.3-.8l.2-.2h.1c1.8-.2 5.7.5 7.6 1m3.4 1.6.2-1c0-.5.3-.3.4-.7a10.7 10.7 0 0 0 0-.8l-.1-.3a5.2 5.2 0 0 0-.7-1h-.2v-.4l-.1-.5-.2-.2-.1-.1-.2-.2-.2-.2-.1-.4-.2-1a4 4 0 0 1 .4-2.4c.7-1 1.2-2.7 1.7-3.7-.5-.7-.4-1.2-.8-1.3-.4-.2-1-.1-1.4.1a6 6 0 0 0-2.2 2.3l.4.7-.2 8.3 1.2.4c.4.4 1 .9 1.5 1.6.3.4.6.3 1 .8Zm-5.2 3.5a9 9 0 0 0-.7 0l-.8.3-2.1.7-.5.2v-.5h-.2a3 3 0 0 0-1.7 0 2 2 0 0 0-1 .5l-.3.6v1l-.2.3v.2l.5.9 1 1.4.5.1a11.2 11.2 0 0 0 3 .1c.3-.2.7-.1.8 0l.6.3.5.3h.4l.3.2.7.7a29 29 0 0 1 2 2.8l1.5 1.6.1.1c1 1 1.6 1.6 2.3 2.6l.2.2a16 16 0 0 0 2.4-3.8c.7-1.7.3-3.4-.6-4.3a89.2 89.2 0 0 0-8.6-6.4h-.1Zm-3.6.2Zm-.5.5Zm5.5 8.7.9 1.2 1.5 1.6v.1c1.1 1 1.7 1.7 2.5 2.7-.3.8-.2 2.5-.6 3.6a67.2 67.2 0 0 0-1.9 5.2 32.2 32.2 0 0 1-4.1 7 82.6 82.6 0 0 1-2.8 4.1 76.6 76.6 0 0 1-8.5 8.6l-.5.8-.9 2.5-1.9 7.2c-1.2 5.4-2.4 11.7-3.1 16-5.8-1-12.6-1.8-16.6-6.3-.8-.9.2-4.6.4-5.8a580.1 580.1 0 0 1 3.7-22.3v-.2l-.2-.1a5.4 5.4 0 0 1-1.5-2.1v-.6c-.6-1.9-.7-3.7-.8-5.6h1.3c.3.3.8.3 1 .3h.2c.4 0 .8.1 1.2.5.2.2.5.3.9.4l1.2.3a19.4 19.4 0 0 0 6.8-.3c.3 0 .6-.2.8-.3l.5-.2 1-.2 3-.3 3-.2a8.4 8.4 0 0 0 1.4-.4l.3-.2.3-.2h.7c.6 0 1.3 0 1.9-.5l.4-.2 1-.2 2.4-.4h.2a34.3 34.3 0 0 0 3.2-.8l.3-.2v-.6l-.1-.1v-.4l.1-1.2.2-.6a39.8 39.8 0 0 0 .3-2.2 28.1 28.1 0 0 0 0-1.4c0-.4-.1-.7-.3-1-.1-.3-.4-.6-.8-.7l-.2-.1-.3-.4h-.1c-.4-.4-.8-.9-1.4-1.3h-.1a9.3 9.3 0 0 1-3-1.2l-.4-.3v-.1l-.6-.3c-.1 0-.3-.2-.4-.5l-.2-1.3a6.3 6.3 0 0 1 .2-1.6h1.4a53.2 53.2 0 0 1 7.1.8Zm-2 14Zm-1.4-17Z" fill="#144490"/><path d="m155 87.3-1-.3s-.6 0-.7.2c-.1.3 0 .3.2.5l.3.2c.2 0 .3.2.3.3l.6.7h.6c.4 0 .4-.3.5-.6a1 1 0 0 0-.3-.7l-.5-.3Z" fill="#F0EADD"/><path d="m152.7 93.5-.1 14.4 2-.6.1-13.6 1-.3-.3-2.8-3.2-.2-.2 3.2h.7Z" fill="#144490"/><path d="m151.1 79.7-.2-1.3c0-.3 0-.7-.2-1 0 0-.4-.1-.6.1-.2.2 0 .5 0 .7l.3 1.2.3 1.2.4.7h.2v-.9l-.2-.7Zm-2.6 2.7a18.5 18.5 0 0 1-1.5-2.6c-.2-.4-.3-.8-.6-1-.2-.1-.5 0-.6.3a48 48 0 0 1 1.1 2l.9 1.2.5.6c.1.1.3.2.4 0 0-.3-.1-.4-.2-.5Zm-4.6 1.6 1.1.5 1.2.6c.1 0 1 .5.9 0-.1-.2-.5-.4-.7-.5a16.6 16.6 0 0 1-1.8-1.2c-.3-.1-.6-.4-1-.4 0 0-.3.2-.3.5s.4.4.6.5Zm2.8 8.9c-.3-.2-.7 0-1 .2a28.7 28.7 0 0 1-2.4 1c-.4 0-.9.2-1.2.5-.1.1-.2.4 0 .6.3.1.7-.1.9-.2l1.4-.7 1.5-.7s1-.5.8-.7Zm.7 2.7c-.2 0-.5.3-.6.4a11.7 11.7 0 0 1-1.3 1c-.2.1-.3.3-.2.6.1.6.8-.3 1-.5l.8-.7s.6-.6.3-.8Zm14.4-14.7h-.3c-.3 0-.6.4-.9.7l-.8.7-.3.6v.2c.2 0 .5-.3.6-.4l.5-.4 1.2-.8c.2-.2.2-.5 0-.6Zm-2-3.4-.3-.2c-.2 0-.4.2-.5.4l-.6 1.3-.6 1.3-.3.7c0 .2 0 .4.2.4s.2-.3.3-.4a29 29 0 0 1 1.4-2.4c.2-.3.6-.7.4-1Zm-4.3-.5h-.3c-.3.2-.1 1.2-.1 1.5v1.3c0 .2 0 1.2.2.9.2-.2.2-.6.2-.8V79l.3-1.5c0-.2-.1-.5-.3-.6Zm-4.2 20.2-.5 1.2c0 .3-.3.6-.2 1 0 .1.2.3.5.2.3 0 .3-.4.3-.5l.3-1.2.2-1.2c0-.3.2-.7 0-.8 0-.2 0-.2-.1-.1-.2 0-.3.5-.3.7l-.2.7Zm3.4-.9a23.4 23.4 0 0 1 .1 3.1c0 .4 0 .9.2 1.2 0 .2.3.3.5.1.3-.2.2-.6.1-.8l-.2-1.5-.1-1.6c0-.3 0-.6-.2-.9 0 0-.2-.2-.3-.1h-.1v.5Zm4.7 1.3-.7-1.2-.8-1.1c0-.1-.7-1-.7-.6 0 .3.1.7.3.9a19.8 19.8 0 0 1 1 2l.6 1c.2 0 .4 0 .6-.3 0-.3-.2-.6-.3-.7Zm3.6-5.2-1.1-.6-1.2-.5c-.2-.1-.5-.4-.8-.3l-.1.2.1.2.5.3a20.7 20.7 0 0 1 2 1.2c.2.2.5.4.9.5.1 0 .3-.2.3-.5s-.4-.4-.5-.5Zm-2-4.1c0 .3.6.3.8.3a27 27 0 0 1 2.6.6c.4 0 .8.3 1.2.2.2 0 .4-.3.2-.6-.1-.3-.6-.2-.8-.3l-1.5-.2-1.6-.2c-.1 0-1.2-.2-1 .2Zm.5-2.8c.2.2.6 0 .7 0a10 10 0 0 1 1.6-.1c.2 0 .4-.1.4-.4.2-.6-.9-.3-1.1-.2l-1 .2s-.8.2-.6.5Zm-19 4.6.2.2c.3.2.8 0 1.1-.1l1-.2c.2 0 .5-.1.6-.3v-.2h-1.2l-1.4.1c-.3 0-.4.3-.3.5Z" fill="#D92026"/></g></svg>
