<svg class="relative" aria-hidden="true" fill="none" width="64" height="52" xmlns="http://www.w3.org/2000/svg" viewBox="0 0 104 84"><path fill="#144490" d="M44 55h17v18H44zm8.1-49.2c-.2 0-.5-1.3-.5-2.9 0-1.6.3-2.9.5-2.9.3 0 .5 1.3.5 3 0 1.5-.2 2.8-.5 2.8Zm0 7.8c-.2 0-.5-.6-.5-1.4 0-.8.3-1.5.5-1.5.3 0 .5.7.5 1.5s-.2 1.4-.5 1.4Zm14.2 1.1c-.8 2.1.1 2.9 1.1 1s1-2.6.2-2.6c-.4 0-1 .7-1.3 1.6Zm-29.9 1.5-.6-1.7c-.2-.6-.1-.9.4-.9.6 0 1.8 2.2 1.8 3.3 0 .6-1.4 0-1.6-.7ZM57 32l-1-.3.8-3.9c2-8 3-11.7 3.5-11.7.4 0 .5.3.4.8A743.6 743.6 0 0 0 57 32Zm6 2.4a21 21 0 0 0-1-.6A562.4 562.4 0 0 1 70.7 20c1 0 0 1.9-5.7 11.2l-2 3.2Zm6.7 6.6a21 21 0 0 0-.6-.9l3.5-2.2c8.6-5.2 11.2-6.6 10.5-5.3-.3.4-7.5 4.9-13.4 8.4Zm2.7 6-.4-1 3.2-.8h.3c12-3 12.2-3 12.2-2.3 0 .6-.4.7-13.7 3.9l-1.6.4Zm.2 9.7.2-1.1 3.8.9a42 42 0 0 1 11 3.2c0 .5-.3.6-1.3.3a1857.5 1857.5 0 0 0-13.7-3.3ZM70.1 63l.6-1c5.9 3.5 13 8 13 8.2 0 .2-.2.4-.6.4-.4 0-7.3-4-13-7.6Zm-6.9 7 1-.6 1.5 2.6c5.2 8.4 6.7 11.3 5.5 10.6-.4-.3-4.6-6.9-8-12.6Zm-22.6-.2 1 .6c-3.5 5.9-7.9 12.8-8.2 12.8-.8 0 .3-2.1 6.1-11.6l1.1-1.8Zm-6.7-7.3.6 1C29 67 22.5 70.8 21.8 71c-2 .4 0-1 9.8-7l2.3-1.5Zm-2.3-6.3.2 1.1C25.1 59 17 61 16.7 60.6c-.6-.6.7-1 11.7-3.7l3.2-.7Zm.4-9.7-.3 1.1-3.3-.7c-8.2-2-11.8-3-11.8-3.5 0-.4.3-.5.8-.4A742.2 742.2 0 0 0 32 46.5Zm2.1-4.9c-6-3.6-13.6-8.4-13.6-8.6 0-1 2 0 11.2 5.7l3 2-.6.9Zm13.6-9.8-1.2.3L43 16.5c0-1.2 1-.2 1.4 1.4a356 356 0 0 1 3.4 14Zm-7 3c.3-.3.7-.4 1-.6l-2-3.3c-6-9.6-7.5-11.8-7-9.6.3.8 4.5 7.8 8 13.5Zm10.9-12.2c0 2.8.2 4.7.5 4.7s.5-2 .5-4.7-.2-4.6-.5-4.6-.5 1.9-.5 4.6Zm-8.8 7.1c-.7 0-4.3-7.8-4.3-9.2 0-1.5 1.1 0 2.7 3.5 2.2 5.1 2.4 5.7 1.6 5.7Zm20.8-8.2c-3.1 7.6-3.3 8.2-2.2 8.2a50 50 0 0 0 3.9-9.3c0-1-1.1-.3-1.7 1.1Zm-38.4 3.2c-.4.3-2.8-1.7-2.8-2.4s.8-.4 2 .8c.6.7 1 1.4.8 1.6Zm2.6 2.9a32 32 0 0 0 7.1 6.8c.2-.2-1.1-1.9-3-3.7-3.2-3.3-4.1-4-4.1-3Zm41.5 6.8c-.2-.2 1.2-1.9 3-3.7 3.2-3.3 4.2-4 4.2-3a32 32 0 0 1-7.2 6.7Zm17.4 2.4c0-.3.6-.8 1.3-1.1 1.9-.8 2-.7 2 0 0 .4-.6 1-1.4 1.2h-.1c-1.2.5-1.6.6-1.7.5l-.1-.5Zm-49.2.5ZM78 39.8c-2.2 1-4 2-4 2.4 0 .4.1.6.2.6.8 0 9.3-3.9 9.5-4.3.3-1-1.5-.5-5.7 1.3ZM30 43c-.4.3-9.2-3.4-9.4-4-.3-.9.6-.7 5.2 1.2 4.2 1.7 4.8 2 4.1 2.8ZM.5 51.6c0 .3 1.3.5 3 .5 1.6 0 2.9-.2 2.9-.5s-1.3-.5-3-.5c-1.6 0-2.9.2-2.9.5ZM12 52c-.7 0-1.3-.1-1.3-.4 0-.3.6-.5 1.3-.5.6 0 1.2.2 1.2.5s-.6.5-1.2.5Zm6.5-.4c0 .3 1.9.5 4.7.5 2.7 0 4.6-.2 4.6-.5s-1.9-.5-4.6-.5c-2.8 0-4.7.2-4.7.5ZM81 52c-2.7 0-4.5-.1-4.5-.4 0-.3 1.8-.5 4.6-.5 2.7 0 4.6.2 4.6.5s-1.9.5-4.6.5Zm9-.4c0 .3.7.5 1.5.5.9 0 1.5-.2 1.5-.5s-.6-.5-1.5-.5c-.8 0-1.4.2-1.4.5Zm10.8.4c-1.6 0-3-.1-3-.4 0-.3 1.4-.5 3-.5s3 .2 3 .5-1.4.5-3 .5Zm-26.5 8.2c-.6.7 0 1 4.3 2.8 4.2 1.7 6.2 2 4.9.8-.7-.7-8.9-3.9-9.2-3.6ZM21 64.6c0-.4 1.7-1.4 4.2-2.4 4.9-2 5-2 5-1.2 0 .3-1.7 1.3-3.8 2.2l-.4.1c-3.9 1.6-4.8 2-5 1.7v-.3Zm66 1.1c-.3.4 2 2 3 2s.6-1.4-.3-1.6a19 19 0 0 1-1.6-.6c-.5-.2-1-.1-1.1.2ZM31 72c-1.9 1.9-3.2 3.6-3 3.8.3.3 7-6 7-6.8 0-.9-.9-.2-4 3Zm45.3 3.8c-.4.3-7.1-6-7.1-6.8 0-.9.9-.2 4 3 2 1.9 3.3 3.6 3.1 3.8Zm4.9 4.8c-.4.4-2.3-1.2-2.3-1.8 0-.7.8-.5 1.7.5.5.6.7 1.2.6 1.3Z"/><circle cx="52.4" cy="52.3" r="17.4" fill="#144490"/><path fill-rule="evenodd" clip-rule="evenodd" d="M52.4 38.4a13.8 13.8 0 1 0 0 27.7 13.8 13.8 0 0 0 0-27.7Zm-16 13.9a16 16 0 1 1 32 0 16 16 0 0 1-32 0Z" fill="#F0EADD"/><path fill-rule="evenodd" clip-rule="evenodd" d="M67 53H37.9v-1.4H67V53Z" fill="#F0EADD"/><path fill-rule="evenodd" clip-rule="evenodd" d="M51.4 67V37.6h1.9V67h-1.9Zm7.7-14.7c0-5.3-1.8-10.6-5.4-14l1.1-1.3c4 3.8 6 9.6 6 15.3 0 5.7-2 11.5-6 15.3l-1.1-1.2c3.6-3.5 5.4-8.8 5.4-14.1Zm-15 0c0-5.7 1.9-11.5 5.8-15.3l1.1 1.2a20 20 0 0 0-5.3 14A20 20 0 0 0 51 66.5l-1 1.1a21.7 21.7 0 0 1-6-15.3Z" fill="#F0EADD"/><path fill-rule="evenodd" clip-rule="evenodd" d="M52.4 44A30.5 30.5 0 0 1 67 47a.9.9 0 0 1-.8 1.4h-.3a29 29 0 0 0-13.4-2.9 29 29 0 0 0-13.3 2.8.8.8 0 0 1-1.2-.3.9.9 0 0 1 .4-1.2c3.6-2 8.9-3 14.1-3Zm0 16.7A30.5 30.5 0 0 0 67 57.4a.9.9 0 0 0-1-1.2A29 29 0 0 1 52.3 59a29 29 0 0 1-13.6-3 .8.8 0 0 0-1 .8.9.9 0 0 0 .5.9c3.6 2 8.9 3 14.1 3Z" fill="#F0EADD"/></svg>
