<svg viewBox="0 0 154 45" fill="none" xmlns="http://www.w3.org/2000/svg"><path d="M76.972 12.642c-1.828 0-3.224.472-4.175 1.404-.951.931-1.427 2.335-1.427 4.198 0 1.862.475 3.26 1.426 4.197.951.938 2.341 1.41 4.176 1.41 1.836 0 3.232-.472 4.183-1.41.95-.937 1.426-2.34 1.426-4.197 0-1.857-.475-3.26-1.426-4.198-.951-.938-2.347-1.404-4.183-1.404zm2.628 7.14c-.1.383-.288.738-.549 1.035a2.023 2.023 0 01-.884.576 3.956 3.956 0 01-2.383 0 2.023 2.023 0 01-.884-.576 2.54 2.54 0 01-.549-1.035 5.391 5.391 0 01-.189-1.545 5.392 5.392 0 01.19-1.544c.1-.383.288-.738.548-1.036.239-.267.544-.466.884-.576a4.083 4.083 0 012.383 0c.34.11.645.31.884.576.26.299.448.653.549 1.036.137.503.2 1.023.189 1.544a5.395 5.395 0 01-.189 1.545zM62.56 20.86l-2.109-8.04h-4.389v10.847h2.542v-8.433l2.335 8.433h3.121l2.341-8.433v8.433h2.665V12.82h-4.39l-2.115 8.04zM90.007 12.642c-1.83 0-3.232.472-4.177 1.404-.945.931-1.426 2.335-1.426 4.198 0 1.862.475 3.26 1.427 4.197.95.938 2.34 1.41 4.175 1.41s3.225-.472 4.177-1.41c.95-.937 1.432-2.34 1.432-4.197 0-1.857-.475-3.26-1.432-4.198-.958-.938-2.342-1.404-4.177-1.404zm2.657 7.14c-.1.383-.287.738-.548 1.035a2.06 2.06 0 01-.884.576 3.974 3.974 0 01-2.39 0 2.096 2.096 0 01-.884-.576 2.61 2.61 0 01-.543-1.035 5.399 5.399 0 01-.189-1.545 5.399 5.399 0 01.19-1.544c.101-.382.287-.736.542-1.036.241-.264.546-.462.884-.576a4.106 4.106 0 012.39 0c.34.112.644.31.884.576.26.299.447.653.549 1.036.134.503.197 1.023.188 1.544a5.619 5.619 0 01-.188 1.545zM105.168 20.174l-3.804-7.354H97.92v10.847h2.536v-7.513l3.895 7.513h3.347V12.82h-2.53v7.354zM151.043 21.406a6.386 6.386 0 01-1.256-.105 2.496 2.496 0 01-.908-.343 1.836 1.836 0 01-.61-.613 2.974 2.974 0 01-.311-.968h5.707v-2.286h-5.707c.049-.341.159-.671.324-.974a1.75 1.75 0 01.609-.613c.277-.167.583-.277.902-.325.403-.069.811-.102 1.22-.098h2.798V12.82h-3.347c-1.837 0-3.194.443-4.072 1.33-.878.886-1.311 2.25-1.299 4.093 0 1.847.441 3.212 1.323 4.094.878.883 2.237 1.33 4.072 1.33h3.506v-2.261h-2.951zM139.93 17.091h-2.018a1.033 1.033 0 01-.75-.257 1.229 1.229 0 01.006-1.514c.206-.182.476-.274.75-.257h4.84V12.82h-5.407a3.296 3.296 0 00-2.439.803 3.365 3.365 0 00-.798 2.451 3.39 3.39 0 00.798 2.451 3.265 3.265 0 002.439.822h2.054a.9.9 0 011.024 1.023.91.91 0 01-.609.993.895.895 0 01-.415.036h-4.993v2.262h5.524a3.33 3.33 0 002.438-.834 3.325 3.325 0 00.835-2.451 3.333 3.333 0 00-.835-2.451 3.336 3.336 0 00-2.444-.834zM125.67 12.82l-4.158 10.847h2.884l.713-2.108h4.17l.713 2.108h2.951l-4.158-10.847h-3.115zm.189 6.514l1.329-3.965 1.335 3.965h-2.664zM119.629 18.783a2.174 2.174 0 00-.671-.454 2.852 2.852 0 00-.573-.184c.131-.031.258-.078.378-.14.194-.092.368-.221.512-.38.19-.213.341-.458.445-.724.144-.372.21-.77.195-1.17a3.346 3.346 0 00-.219-1.256 2.461 2.461 0 00-.61-.913 2.606 2.606 0 00-.981-.552 4.024 4.024 0 00-1.281-.19h-6.334v10.847h6.664c.448.003.895-.055 1.329-.172.367-.098.71-.274 1.005-.515.289-.237.515-.542.659-.888a3.488 3.488 0 000-2.5 2.704 2.704 0 00-.518-.81zm-6.469-3.739h2.927a1.14 1.14 0 01.804.246 1 1 0 01.215.364c.045.135.061.278.048.42.013.142-.003.285-.048.42a1 1 0 01-.215.364 1.171 1.171 0 01-.804.246h-2.927v-2.06zm3.408 6.404h-3.408v-2.132h3.408a.921.921 0 01.785.268.938.938 0 01.258.792.937.937 0 01-.252.8.924.924 0 01-.791.272z" fill="#A9995D"/><path d="M58.903 34.87a1.059 1.059 0 01-.81-.816 3.08 3.08 0 01-.086-.809v-4.547h-1.92v4.81c0 2.066 1.03 3.065 3.078 3.065h2.695V34.93h-2.152c-.27.016-.54-.005-.805-.06zM66.225 28.698l-3.048 7.905h2.103l.518-1.538h3.048l.518 1.538h2.152l-3.048-7.905h-2.243zm.134 4.75l.975-2.887.945 2.886h-1.92zM88.72 32.418a2.436 2.436 0 00-1.786-.613h-1.47a.734.734 0 01-.542-.184.892.892 0 010-1.097.738.738 0 01.543-.184h3.542v-1.642h-3.939a2.427 2.427 0 00-1.774.613 2.46 2.46 0 00-.579 1.783c-.048.652.16 1.297.58 1.796a2.436 2.436 0 001.773.612h1.5a.74.74 0 01.885.377.75.75 0 01-.54 1.075.741.741 0 01-.345-.024H82.91v1.649h4.024a2.112 2.112 0 001.785-.603 2.133 2.133 0 00.605-1.793 2.414 2.414 0 00-.604-1.765zM80.051 33.043a1.828 1.828 0 00-.488-.331 2.071 2.071 0 00-.42-.129c.094-.025.186-.06.274-.104.143-.066.27-.162.372-.282.142-.153.254-.332.33-.527.1-.272.148-.561.14-.852a2.464 2.464 0 00-.16-.913 1.837 1.837 0 00-1.176-1.066 2.979 2.979 0 00-.932-.14h-4.597v7.904h4.877c.327.003.653-.038.97-.122a1.99 1.99 0 00.743-.38c.204-.165.369-.375.482-.613a2.26 2.26 0 00.17-.925 2.148 2.148 0 00-.164-.895 1.98 1.98 0 00-.42-.625zm-4.718-2.721h2.133a.844.844 0 01.61.178.953.953 0 010 1.14.844.844 0 01-.61.177h-2.133v-1.495zm2.487 4.657h-2.487v-1.544h2.487a.774.774 0 010 1.544z" fill="#4B5A6B"/><path d="M43.351 12.961a3.295 3.295 0 003.286-3.303 3.295 3.295 0 00-3.286-3.303 3.294 3.294 0 00-3.286 3.303 3.294 3.294 0 003.286 3.303z" fill="url(#paint0_linear)"/><path d="M25.196 20.492l6.627-8.18c-.434-.26-.882-.495-1.341-.705a14.149 14.149 0 00-10.364-.674l3.365 9.29a2.84 2.84 0 011.713.27z" fill="#4B5A6B"/><path d="M25.196 20.492l6.627-8.18c-.434-.26-.882-.495-1.341-.705a14.149 14.149 0 00-10.364-.674l3.365 9.29a2.84 2.84 0 011.713.27z" fill="url(#paint1_linear)"/><path d="M17.228 34.771h5.578l-5.578-1.49v1.49zM29.793 34.771h1.969v-.723l-1.97.723z" fill="#6F7B89"/><path d="M29.659 16.883l-3.542 4.37 3.542-4.37z" fill="#939CA6"/><path d="M24.501 37.994A11.834 11.834 0 0016.4 41.06a10.901 10.901 0 00-2.2 2.898h2.87a8.562 8.562 0 012.646-2.898 8.493 8.493 0 017.548-1.027 8.528 8.528 0 013.316 2.087c.532.55.99 1.168 1.36 1.838h2.871a11.53 11.53 0 00-4.328-4.425 11.452 11.452 0 00-5.98-1.538z" fill="#fff"/><path d="M36.249 39.723l-2.366-1.054-.536-2.586a.141.141 0 00-.14-.11H15.783a.147.147 0 00-.14.116l-.536 2.58-2.366 1.054c-1.652.735-2.75 2.144-3.334 4.29h3.45a12.129 12.129 0 012.731-3.782 13.001 13.001 0 018.913-3.4c4.725 0 9.48 2.45 11.638 7.181h3.445c-.567-2.145-1.683-3.566-3.335-4.29z" fill="#fff"/><path d="M24.501 40.85a7.286 7.286 0 00-3.39.833A7.327 7.327 0 0018.49 44h11.99a8.119 8.119 0 00-.792-.974 7.224 7.224 0 00-5.188-2.175zM17.362 28.863l1.61.43-2.244-6.202a2.915 2.915 0 00-2.018-1.838l-3.865-1.03a14.418 14.418 0 00-.481 6.74l6.998 1.9z" fill="#fff"/><path d="M17.85 22.674l2.53 6.992 5.328 1.422c.57.149 1.17.123 1.726-.073l4.45-1.6 1.347-.49c.13-.046.262-.083.396-.11.265-.073.537-.118.811-.135.411-.015.822.03 1.22.134l2.292.613a14.54 14.54 0 00.506-1.838l-12.01-3.223a2.87 2.87 0 01-2.56 1.593 2.88 2.88 0 01-1.652-.526 2.903 2.903 0 01.127-4.83l-3.353-9.26a14.062 14.062 0 00-4.654 3.092A14.148 14.148 0 0011.26 19.1l3.755.987c.646.168 1.24.492 1.735.942.493.45.87 1.015 1.1 1.644z" fill="#fff"/><path d="M33.64 30.028l-5.774 2.114a3.476 3.476 0 01-.658.172.91.91 0 01-.134 0 5.154 5.154 0 01-.537.049h-.567c-.158 0-.317-.056-.469-.092H25.349l-5.542-1.477h-.067l-9.102-2.451c.193.74.446 1.463.756 2.163l13.601 3.603a5.915 5.915 0 003.554-.16l8.145-2.983a1.83 1.83 0 00.713-.472l-2.048-.54a2.84 2.84 0 00-1.72.074zM23.886 24.764a1.7 1.7 0 001.694-1.704 1.7 1.7 0 00-1.694-1.703 1.7 1.7 0 00-1.695 1.703 1.7 1.7 0 001.695 1.704z" fill="#fff"/><path d="M24.501 39.649a8.5 8.5 0 00-4.3 1.166A8.558 8.558 0 0017.07 44h1.438a7.33 7.33 0 012.344-2.173 7.288 7.288 0 018.88 1.199c.274.305.525.63.75.974h1.414a8.672 8.672 0 00-1.36-1.838 8.4 8.4 0 00-6.035-2.513z" fill="#4B5A6B"/><path d="M24.501 36.818a13.002 13.002 0 00-8.913 3.4A12.132 12.132 0 0012.858 44h1.34a10.901 10.901 0 012.201-2.899 11.834 11.834 0 018.102-3.064 11.452 11.452 0 015.97 1.542A11.53 11.53 0 0134.792 44h1.348c-2.158-4.73-6.92-7.182-11.638-7.182z" fill="#4B5A6B"/><path d="M46.155 13.163a4.522 4.522 0 00.72-6.228 4.463 4.463 0 00-6.17-.918l-.097.08a24.445 24.445 0 00-8.435-4.833 24.358 24.358 0 00-18.97 1.544 24.501 24.501 0 00-7.551 6.135 24.646 24.646 0 00-4.584 8.604 24.727 24.727 0 002.038 19.022 24.572 24.572 0 006.3 7.425c.61-2.127 1.683-3.536 3.335-4.29l2.366-1.054.536-2.58a.147.147 0 01.14-.116h17.424a.14.14 0 01.14.11l.536 2.586 2.366 1.054c1.652.736 2.75 2.145 3.334 4.29a24.53 24.53 0 008.872-14.212 24.625 24.625 0 00-2.3-16.619zM26.763 23.207c.019-.39-.04-.779-.17-1.146a2.772 2.772 0 00-.476-.815l3.542-4.37c.268.434.61.816 1.012 1.128l2.548 1.19a.74.74 0 01.26.852.711.711 0 01-.175.263l-.86.84.903 1.078a.504.504 0 01.055.545l-.44.827.52-.196a.504.504 0 01.377 0 .495.495 0 01.25.282l.396 1.146c.05.147.09.296.122.448l-7.864-2.072zm3.719-11.6c.451.21.89.446 1.317.704l-6.603 8.181a2.84 2.84 0 00-1.713-.27l-3.365-9.29a14.149 14.149 0 0110.364.675zM25.605 23.06a1.716 1.716 0 01-1.052 1.58 1.692 1.692 0 01-1.854-.373 1.712 1.712 0 01-.365-1.865 1.707 1.707 0 012.227-.923 1.689 1.689 0 01.918.926c.085.208.127.43.126.655zm-14.76-2.837l3.865 1.017c.46.119.884.348 1.236.668.351.32.62.722.782 1.17l2.244 6.215-1.61-.43-6.998-1.9a14.418 14.418 0 01.481-6.74zm6.383 14.548v-1.49l5.578 1.49h-5.578zm14.534 0h-1.97l1.97-.723v.723zm4.926-3.806l-8.145 2.985a5.915 5.915 0 01-3.554.16l-13.607-3.635c-.31-.7-.563-1.423-.756-2.163l9.102 2.451h.067l5.541 1.477h.153c.152.037.31.067.47.092h.554c.18-.007.359-.023.536-.049.045.003.09.003.135 0 .224-.035.445-.093.658-.172l5.798-2.083a2.84 2.84 0 011.719-.074l2.042.54a1.83 1.83 0 01-.713.471zm1.274-1.55l-2.292-.613a4.199 4.199 0 00-1.22-.135 4.08 4.08 0 00-.81.135 2.928 2.928 0 00-.397.11l-1.36.503-4.45 1.6a2.942 2.942 0 01-1.75.08l-5.327-1.423-2.506-6.998a4.144 4.144 0 00-1.1-1.647 4.115 4.115 0 00-1.735-.945l-3.755-.987a14.15 14.15 0 013.095-4.663 14.065 14.065 0 014.653-3.089l3.353 9.26c-.56.352-.984.886-1.199 1.514a2.903 2.903 0 001.072 3.316c.484.341 1.06.524 1.651.526a2.87 2.87 0 002.56-1.593l12.023 3.21a14.536 14.536 0 01-.506 1.839zm7.316-17.08a3.28 3.28 0 01-3.65.154 3.295 3.295 0 01-1.484-2.043 3.323 3.323 0 01.388-2.499c.225-.37.52-.693.868-.949l.092-.055a3.238 3.238 0 013.318-.222 3.29 3.29 0 01.724 5.37 3.46 3.46 0 01-.244.233l-.012.012z" fill="#4B5A6B"/><path d="M32.817 12.98l-3.158 3.903c.268.433.61.815 1.012 1.128l2.548 1.188a.742.742 0 01.305.54.714.714 0 01-.22.576l-.86.84.903 1.078a.504.504 0 01.055.545l-.44.828.52-.197a.503.503 0 01.377 0 .495.495 0 01.25.282l.396 1.146c.05.147.09.296.122.448l4.036 1.078c.3-2.552-.083-5.139-1.111-7.492a14.405 14.405 0 00-4.735-5.892z" fill="url(#paint2_linear)"/><path d="M34.505 24.856l-.366-1.146a.496.496 0 00-.25-.282.503.503 0 00-.377 0l-.519.196.44-.827a.505.505 0 00-.056-.546l-.902-1.078.86-.84a.713.713 0 00.22-.576.743.743 0 00-.306-.54l-2.548-1.188a4.284 4.284 0 01-1.012-1.128l-3.542 4.37c.19.237.341.504.445.79.131.365.189.753.17 1.14l7.865 2.096a3.742 3.742 0 00-.122-.441z" fill="#939CA6"/><defs><linearGradient id="paint0_linear" x1="40.065" y1="9.658" x2="46.637" y2="9.658" gradientUnits="userSpaceOnUse"><stop stop-color="#A9995D"/><stop offset="1" stop-color="#D9C393"/></linearGradient><linearGradient id="paint1_linear" x1="406.617" y1="267.024" x2="631.119" y2="267.024" gradientUnits="userSpaceOnUse"><stop stop-color="#A9995D"/><stop offset="1" stop-color="#D9C393"/></linearGradient><linearGradient id="paint2_linear" x1="30.268" y1="15.541" x2="39.908" y2="25.13" gradientUnits="userSpaceOnUse"><stop stop-color="#4B5A6B"/><stop offset=".75" stop-color="#6D7987"/></linearGradient></defs></svg>
